<?xml version="1.0" encoding="utf-8"?>
<!-- Generator: Adobe Illustrator 19.0.0, SVG Export Plug-In . SVG Version: 6.00 Build 0)  -->
<svg version="1.1" id="Layer_1" xmlns="http://www.w3.org/2000/svg" xmlns:xlink="http://www.w3.org/1999/xlink" x="0px" y="0px"
	 width="1400px" height="980px" viewBox="0 0 1400 980" enable-background="new 0 0 1400 980" xml:space="preserve">
<g id="XMLID_14_">
	<rect id="XMLID_2000_" fill="#0A3542" width="1400" height="980"/>
	<g id="XMLID_856_">
		<g id="XMLID_850_">
			<ellipse id="XMLID_532_" fill="#081517" cx="1128.6" cy="561.1" rx="162" ry="22"/>
			<g id="XMLID_1929_">
				<g id="XMLID_1944_">
					<path id="XMLID_1945_" fill="#F26C63" d="M1027.7,561.1c-25.2,0-45.7-20.5-45.7-45.7s20.5-45.7,45.7-45.7
						c25.2,0,45.7,20.5,45.7,45.7S1052.9,561.1,1027.7,561.1z"/>
				</g>
				<g id="XMLID_1942_">
					<circle id="XMLID_1943_" fill="#0A3542" cx="1027.7" cy="515.3" r="22.4"/>
				</g>
				<g id="XMLID_1938_">
					<path id="XMLID_1939_" fill="#C7B570" d="M1132.8,561.1c-25.2,0-45.7-20.5-45.7-45.7s20.5-45.7,45.7-45.7
						c25.2,0,45.7,20.5,45.7,45.7S1158,561.1,1132.8,561.1z"/>
				</g>
				<g id="XMLID_1936_">
					<circle id="XMLID_1937_" fill="#0A3542" cx="1132.8" cy="515.3" r="22.4"/>
				</g>
				<g id="XMLID_1932_">
					<path id="XMLID_1933_" fill="#8AACB9" d="M1238,561.1c-25.2,0-45.7-20.5-45.7-45.7s20.5-45.7,45.7-45.7
						c25.2,0,45.7,20.5,45.7,45.7S1263.2,561.1,1238,561.1z"/>
				</g>
				<g id="XMLID_1930_">
					<circle id="XMLID_1931_" fill="#0A3542" cx="1238" cy="515.3" r="22.4"/>
				</g>
				<g id="XMLID_228_">
					<path id="XMLID_342_" fill="#DD898A" d="M1027.7,561.1c-25.2,0-45.7-20.5-45.7-45.7s20.5-45.7,45.7-45.7V561.1z"/>
				</g>
				<g id="XMLID_221_">
					<path id="XMLID_222_" fill="#ACB779" d="M1132.8,561.1c-25.2,0-45.7-20.5-45.7-45.7s20.5-45.7,45.7-45.7V561.1z"/>
				</g>
				<g id="XMLID_218_">
					<path id="XMLID_219_" fill="#9AC0CE" d="M1238,561.1c-25.2,0-45.7-20.5-45.7-45.7s20.5-45.7,45.7-45.7V561.1z"/>
				</g>
			</g>
			<g id="XMLID_1792_">
				<path id="XMLID_1803_" fill="#DAD7C5" d="M1068.8,631l-3.7,11.1h-4.7l12-35.4h5.5l12.1,35.4h-4.9l-3.8-11.1H1068.8z
					 M1080.3,627.4l-3.5-10.2c-0.8-2.3-1.3-4.4-1.8-6.5h-0.1c-0.5,2.1-1.1,4.3-1.8,6.4l-3.5,10.2H1080.3z"/>
				<path id="XMLID_1801_" fill="#DAD7C5" d="M1098.2,606.8v20.9c0,7.9,3.5,11.3,8.2,11.3c5.2,0,8.6-3.5,8.6-11.3v-20.9h4.6v20.6
					c0,10.9-5.7,15.3-13.4,15.3c-7.2,0-12.7-4.1-12.7-15.1v-20.8H1098.2z"/>
				<path id="XMLID_1798_" fill="#DAD7C5" d="M1127.6,607.2c2.8-0.4,6.1-0.7,9.7-0.7c6.6,0,11.2,1.5,14.3,4.4c3.1,2.9,5,7,5,12.7
					c0,5.8-1.8,10.5-5.1,13.7c-3.3,3.3-8.8,5.1-15.6,5.1c-3.3,0-6-0.2-8.3-0.4V607.2z M1132.2,638.5c1.2,0.2,2.8,0.3,4.6,0.3
					c9.8,0,15.1-5.5,15.1-15c0.1-8.3-4.7-13.6-14.3-13.6c-2.4,0-4.1,0.2-5.4,0.5V638.5z"/>
				<path id="XMLID_1796_" fill="#DAD7C5" d="M1167.1,606.8v35.4h-4.6v-35.4H1167.1z"/>
				<path id="XMLID_1793_" fill="#DAD7C5" d="M1205.3,624.1c0,12.2-7.4,18.6-16.4,18.6c-9.3,0-15.9-7.2-15.9-17.9
					c0-11.2,7-18.6,16.4-18.6C1199,606.2,1205.3,613.6,1205.3,624.1z M1177.8,624.7c0,7.6,4.1,14.3,11.3,14.3
					c7.2,0,11.3-6.7,11.3-14.7c0-7-3.7-14.4-11.3-14.4C1181.6,609.9,1177.8,616.9,1177.8,624.7z"/>
			</g>
		</g>
		<g id="XMLID_853_">
			<ellipse id="XMLID_220_" fill="#081517" cx="261" cy="245" rx="162" ry="22"/>
			<g id="XMLID_1975_">
				<g id="XMLID_1980_">
					<path id="XMLID_1981_" fill="#8AACB9" d="M376.7,243.2H148.2v-96.7h228.5V243.2z"/>
				</g>
				<g id="XMLID_1976_">
					<path id="XMLID_1977_" fill="#DAD7C5" d="M355.7,199.1H169.2v-31.5h186.5V199.1z"/>
				</g>
				<g id="XMLID_96_">
					<path id="XMLID_130_" fill="#7895A4" d="M210.5,243.2h-62.3v-96.7h62.3V243.2z"/>
				</g>
			</g>
			<g id="XMLID_1654_">
				<path id="XMLID_1673_" fill="#DAD7C5" d="M144.8,327.9v20.9c0,7.9,3.5,11.3,8.2,11.3c5.2,0,8.6-3.5,8.6-11.3v-20.9h4.6v20.6
					c0,10.9-5.7,15.3-13.4,15.3c-7.2,0-12.7-4.1-12.7-15.1v-20.8H144.8z"/>
				<path id="XMLID_1671_" fill="#DAD7C5" d="M173.5,357.7c2,1.3,5,2.3,8.2,2.3c4.7,0,7.4-2.5,7.4-6c0-3.3-1.9-5.2-6.7-7
					c-5.8-2-9.3-5-9.3-10c0-5.5,4.6-9.6,11.4-9.6c3.6,0,6.2,0.8,7.8,1.7l-1.3,3.7c-1.2-0.6-3.5-1.7-6.7-1.7c-4.8,0-6.7,2.9-6.7,5.3
					c0,3.3,2.2,4.9,7,6.8c6,2.3,9,5.2,9,10.4c0,5.5-4,10.2-12.4,10.2c-3.4,0-7.1-1-9-2.3L173.5,357.7z"/>
				<path id="XMLID_1667_" fill="#DAD7C5" d="M200,328.4c2-0.4,5.1-0.7,8.3-0.7c4.6,0,7.5,0.8,9.7,2.6c1.8,1.4,2.9,3.5,2.9,6.2
					c0,3.4-2.3,6.4-6,7.8v0.1c3.4,0.8,7.3,3.6,7.3,8.9c0,3-1.2,5.4-3,7.1c-2.5,2.3-6.5,3.3-12.2,3.3c-3.1,0-5.6-0.2-7.1-0.4V328.4z
					 M204.6,342.9h4.1c4.8,0,7.7-2.5,7.7-5.9c0-4.1-3.1-5.8-7.8-5.8c-2.1,0-3.3,0.2-4,0.3V342.9z M204.6,359.8
					c0.9,0.2,2.2,0.2,3.8,0.2c4.7,0,9.1-1.7,9.1-6.9c0-4.8-4.1-6.8-9.1-6.8h-3.8V359.8z"/>
				<path id="XMLID_1665_" fill="#DAD7C5" d="M244.1,331.8h-10.8v-3.9h26.2v3.9h-10.8v31.5h-4.6V331.8z"/>
				<path id="XMLID_1663_" fill="#DAD7C5" d="M272.8,363.3v-15l-11.2-20.4h5.2l5,9.8c1.4,2.7,2.4,4.8,3.5,7.3h0.1
					c1-2.3,2.2-4.6,3.6-7.3l5.1-9.8h5.2l-11.9,20.3v15.1H272.8z"/>
				<path id="XMLID_1660_" fill="#DAD7C5" d="M293,328.3c2.2-0.4,5.1-0.7,8.8-0.7c4.5,0,7.8,1,9.9,2.9c1.9,1.7,3.1,4.2,3.1,7.4
					c0,3.2-0.9,5.7-2.7,7.6c-2.4,2.6-6.3,3.9-10.8,3.9c-1.4,0-2.6-0.1-3.7-0.3v14.2H293V328.3z M297.5,345.4c1,0.3,2.3,0.4,3.8,0.4
					c5.5,0,8.9-2.7,8.9-7.6c0-4.7-3.3-6.9-8.3-6.9c-2,0-3.5,0.2-4.3,0.4V345.4z"/>
				<path id="XMLID_1658_" fill="#DAD7C5" d="M339.2,346.7h-13.7v12.7h15.3v3.8h-19.9v-35.4H340v3.8h-14.5v11.2h13.7V346.7z"/>
				<path id="XMLID_1655_" fill="#DAD7C5" d="M363.5,352.2l-3.7,11.1h-4.7l12-35.4h5.5l12.1,35.4h-4.9l-3.8-11.1H363.5z
					 M375.1,348.6l-3.5-10.2c-0.8-2.3-1.3-4.4-1.8-6.5h-0.1c-0.5,2.1-1.1,4.3-1.8,6.4l-3.5,10.2H375.1z"/>
			</g>
		</g>
		<g id="XMLID_852_">
			<ellipse id="XMLID_348_" fill="#081517" cx="700" cy="288.8" rx="129.5" ry="22"/>
			<g id="XMLID_1962_">
				<g id="XMLID_1971_">
					<path id="XMLID_1972_" fill="#C7B570" d="M778.2,288.8H616.2V171l16.8-22.1v-48h128.3v48l16.8,22.1V288.8z"/>
				</g>
				<g id="XMLID_1967_">
					<path id="XMLID_1968_" fill="#767769" d="M741.9,138.8h-89.4v-19.6h89.4V138.8z"/>
				</g>
				<g id="XMLID_1963_">
					<path id="XMLID_1964_" fill="#767769" d="M748.2,248.3h-102v-50.6h102V248.3z"/>
				</g>
			</g>
			<g id="XMLID_1676_">
				<path id="XMLID_1699_" fill="#DAD7C5" d="M581.9,327.9v20.9c0,7.9,3.5,11.3,8.2,11.3c5.2,0,8.6-3.5,8.6-11.3v-20.9h4.6v20.6
					c0,10.9-5.7,15.3-13.4,15.3c-7.2,0-12.7-4.1-12.7-15.1v-20.8H581.9z"/>
				<path id="XMLID_1697_" fill="#DAD7C5" d="M610.6,357.7c2,1.3,5,2.3,8.2,2.3c4.7,0,7.4-2.5,7.4-6c0-3.3-1.9-5.2-6.7-7
					c-5.8-2-9.3-5-9.3-10c0-5.5,4.6-9.6,11.4-9.6c3.6,0,6.2,0.8,7.8,1.7l-1.3,3.7c-1.2-0.6-3.5-1.7-6.7-1.7c-4.8,0-6.7,2.9-6.7,5.3
					c0,3.3,2.2,4.9,7,6.8c6,2.3,9,5.2,9,10.4c0,5.5-4,10.2-12.4,10.2c-3.4,0-7.1-1-9-2.3L610.6,357.7z"/>
				<path id="XMLID_1693_" fill="#DAD7C5" d="M637.1,328.4c2-0.4,5.1-0.7,8.3-0.7c4.6,0,7.5,0.8,9.7,2.6c1.8,1.4,2.9,3.5,2.9,6.2
					c0,3.4-2.3,6.4-6,7.8v0.1c3.4,0.8,7.3,3.6,7.3,8.9c0,3-1.2,5.4-3,7.1c-2.5,2.3-6.5,3.3-12.2,3.3c-3.1,0-5.6-0.2-7.1-0.4V328.4z
					 M641.7,342.9h4.1c4.8,0,7.7-2.5,7.7-5.9c0-4.1-3.1-5.8-7.8-5.8c-2.1,0-3.3,0.2-4,0.3V342.9z M641.7,359.8
					c0.9,0.2,2.2,0.2,3.8,0.2c4.7,0,9.1-1.7,9.1-6.9c0-4.8-4.1-6.8-9.1-6.8h-3.8V359.8z"/>
				<path id="XMLID_1691_" fill="#DAD7C5" d="M681.2,331.8h-10.8v-3.9h26.2v3.9h-10.8v31.5h-4.6V331.8z"/>
				<path id="XMLID_1688_" fill="#DAD7C5" d="M709.9,363.3v-15l-11.2-20.4h5.2l5,9.8c1.4,2.7,2.4,4.8,3.5,7.3h0.1
					c1-2.3,2.2-4.6,3.6-7.3l5.1-9.8h5.2l-11.9,20.3v15.1H709.9z"/>
				<path id="XMLID_1685_" fill="#DAD7C5" d="M730,328.3c2.2-0.4,5.1-0.7,8.8-0.7c4.5,0,7.8,1,9.9,2.9c1.9,1.7,3.1,4.2,3.1,7.4
					c0,3.2-0.9,5.7-2.7,7.6c-2.4,2.6-6.3,3.9-10.8,3.9c-1.4,0-2.6-0.1-3.7-0.3v14.2H730V328.3z M734.6,345.4c1,0.3,2.3,0.4,3.8,0.4
					c5.5,0,8.9-2.7,8.9-7.6c0-4.7-3.3-6.9-8.3-6.9c-2,0-3.5,0.2-4.3,0.4V345.4z"/>
				<path id="XMLID_1682_" fill="#DAD7C5" d="M776.3,346.7h-13.7v12.7h15.3v3.8h-19.9v-35.4H777v3.8h-14.5v11.2h13.7V346.7z"/>
				<path id="XMLID_1677_" fill="#DAD7C5" d="M794.9,328.4c2-0.4,5.1-0.7,8.3-0.7c4.6,0,7.5,0.8,9.7,2.6c1.8,1.4,2.9,3.5,2.9,6.2
					c0,3.4-2.3,6.4-6,7.8v0.1c3.4,0.8,7.3,3.6,7.3,8.9c0,3-1.2,5.4-3,7.1c-2.5,2.3-6.5,3.3-12.2,3.3c-3.1,0-5.6-0.2-7.1-0.4V328.4z
					 M799.4,342.9h4.1c4.8,0,7.7-2.5,7.7-5.9c0-4.1-3.1-5.8-7.8-5.8c-2.1,0-3.3,0.2-4,0.3V342.9z M799.4,359.8
					c0.9,0.2,2.2,0.2,3.8,0.2c4.7,0,9.1-1.7,9.1-6.9c0-4.8-4.1-6.8-9.1-6.8h-3.8V359.8z"/>
			</g>
			<polygon id="XMLID_223_" fill="#ACB779" points="675.3,100.9 633.1,100.9 633.1,148.9 616.2,171 616.2,288.8 675.3,288.8 			"/>
		</g>
		<g id="XMLID_851_">
			<ellipse id="XMLID_354_" fill="#081517" cx="1128.6" cy="241" rx="162" ry="22"/>
			<g id="XMLID_1955_">
				<g id="XMLID_1958_">
					<path id="XMLID_1959_" fill="#F26C63" d="M1218.5,237.8h-171.3c-23.7,0-43-19.3-43-43c0-23.7,19.3-43,43-43h171.3
						c23.7,0,43,19.3,43,43C1261.4,218.6,1242.2,237.8,1218.5,237.8z"/>
				</g>
				<g id="XMLID_1956_">
					<rect id="XMLID_1957_" x="1047.3" y="189.6" fill="#0A3542" width="171" height="10.5"/>
				</g>
			</g>
			<g id="XMLID_1701_">
				<path id="XMLID_1719_" fill="#DAD7C5" d="M1016.3,327.9v20.9c0,7.9,3.5,11.3,8.2,11.3c5.2,0,8.6-3.5,8.6-11.3v-20.9h4.6v20.6
					c0,10.9-5.7,15.3-13.4,15.3c-7.2,0-12.7-4.1-12.7-15.1v-20.8H1016.3z"/>
				<path id="XMLID_1717_" fill="#DAD7C5" d="M1045,357.7c2,1.3,5,2.3,8.2,2.3c4.7,0,7.4-2.5,7.4-6c0-3.3-1.9-5.2-6.7-7
					c-5.8-2-9.3-5-9.3-10c0-5.5,4.6-9.6,11.4-9.6c3.6,0,6.2,0.8,7.8,1.7l-1.3,3.7c-1.2-0.6-3.5-1.7-6.7-1.7c-4.8,0-6.7,2.9-6.7,5.3
					c0,3.3,2.2,4.9,7,6.8c6,2.3,9,5.2,9,10.4c0,5.5-4,10.2-12.4,10.2c-3.4,0-7.1-1-9-2.3L1045,357.7z"/>
				<path id="XMLID_1713_" fill="#DAD7C5" d="M1071.5,328.4c2-0.4,5.1-0.7,8.3-0.7c4.6,0,7.5,0.8,9.7,2.6c1.8,1.4,2.9,3.5,2.9,6.2
					c0,3.4-2.3,6.4-6,7.8v0.1c3.4,0.8,7.3,3.6,7.3,8.9c0,3-1.2,5.4-3,7.1c-2.5,2.3-6.5,3.3-12.2,3.3c-3.1,0-5.6-0.2-7.1-0.4V328.4z
					 M1076,342.9h4.1c4.8,0,7.7-2.5,7.7-5.9c0-4.1-3.1-5.8-7.8-5.8c-2.1,0-3.3,0.2-4,0.3V342.9z M1076,359.8
					c0.9,0.2,2.2,0.2,3.8,0.2c4.7,0,9.1-1.7,9.1-6.9c0-4.8-4.1-6.8-9.1-6.8h-3.8V359.8z"/>
				<path id="XMLID_1711_" fill="#DAD7C5" d="M1115.6,331.8h-10.8v-3.9h26.2v3.9h-10.8v31.5h-4.6V331.8z"/>
				<path id="XMLID_1709_" fill="#DAD7C5" d="M1144.3,363.3v-15l-11.2-20.4h5.2l5,9.8c1.4,2.7,2.4,4.8,3.5,7.3h0.1
					c1-2.3,2.2-4.6,3.6-7.3l5.1-9.8h5.2l-11.9,20.3v15.1H1144.3z"/>
				<path id="XMLID_1706_" fill="#DAD7C5" d="M1164.4,328.3c2.2-0.4,5.1-0.7,8.8-0.7c4.5,0,7.8,1,9.9,2.9c1.9,1.7,3.1,4.2,3.1,7.4
					c0,3.2-0.9,5.7-2.7,7.6c-2.4,2.6-6.3,3.9-10.8,3.9c-1.4,0-2.6-0.1-3.7-0.3v14.2h-4.6V328.3z M1169,345.4c1,0.3,2.3,0.4,3.8,0.4
					c5.5,0,8.9-2.7,8.9-7.6c0-4.7-3.3-6.9-8.3-6.9c-2,0-3.5,0.2-4.3,0.4V345.4z"/>
				<path id="XMLID_1704_" fill="#DAD7C5" d="M1210.6,346.7h-13.7v12.7h15.3v3.8h-19.9v-35.4h19.1v3.8h-14.5v11.2h13.7V346.7z"/>
				<path id="XMLID_1702_" fill="#DAD7C5" d="M1254,362.1c-1.7,0.8-5,1.7-9.3,1.7c-10,0-17.5-6.3-17.5-17.9
					c0-11.1,7.5-18.6,18.5-18.6c4.4,0,7.2,0.9,8.4,1.6l-1.1,3.7c-1.7-0.8-4.2-1.5-7.1-1.5c-8.3,0-13.8,5.3-13.8,14.6
					c0,8.7,5,14.2,13.6,14.2c2.8,0,5.6-0.6,7.5-1.5L1254,362.1z"/>
			</g>
			<path id="XMLID_224_" fill="#DD898A" d="M1080.3,151.9h-33.2c-23.7,0-43,19.3-43,43c0,23.7,19.3,43,43,43h33.2V151.9z"/>
		</g>
		<g id="XMLID_854_">
			<ellipse id="XMLID_346_" fill="#081517" cx="261" cy="569.2" rx="162" ry="22"/>
			<g id="XMLID_1862_">
				<g id="XMLID_1925_">
					<path id="XMLID_1926_" fill="#B0A690" d="M362.1,569.2H162.8c-25.6,0-46.5-20.8-46.5-46.5v-36.3c0-13.7,11.2-24.9,24.9-24.9
						h242.5c13.7,0,24.9,11.2,24.9,24.9v36.3C408.6,548.3,387.8,569.2,362.1,569.2z"/>
				</g>
				<g id="XMLID_1914_">
					<g id="XMLID_1920_">
						<g id="XMLID_1923_">
							<circle id="XMLID_1924_" fill="#DAD7C5" cx="340.9" cy="499" r="6.1"/>
						</g>
						<g id="XMLID_1921_">
							<circle id="XMLID_1922_" fill="#DAD7C5" cx="362.3" cy="499" r="6.1"/>
						</g>
					</g>
					<g id="XMLID_1915_">
						<g id="XMLID_1918_">
							<circle id="XMLID_1919_" fill="#DAD7C5" cx="340.9" cy="531.6" r="6.1"/>
						</g>
						<g id="XMLID_1916_">
							<circle id="XMLID_1917_" fill="#DAD7C5" cx="362.3" cy="531.6" r="6.1"/>
						</g>
					</g>
				</g>
				<g id="XMLID_1865_">
					<g id="XMLID_1912_">
						<circle id="XMLID_1913_" fill="#DAD7C5" cx="148.5" cy="495" r="6.1"/>
					</g>
					<g id="XMLID_1910_">
						<circle id="XMLID_1911_" fill="#DAD7C5" cx="170" cy="495" r="6.1"/>
					</g>
					<g id="XMLID_1908_">
						<circle id="XMLID_1909_" fill="#DAD7C5" cx="191.4" cy="495" r="6.1"/>
					</g>
					<g id="XMLID_1906_">
						<circle id="XMLID_1907_" fill="#DAD7C5" cx="212.9" cy="495" r="6.1"/>
					</g>
					<g id="XMLID_1904_">
						<circle id="XMLID_1905_" fill="#DAD7C5" cx="234.4" cy="495" r="6.1"/>
					</g>
					<g id="XMLID_1902_">
						<circle id="XMLID_1903_" fill="#DAD7C5" cx="255.8" cy="495" r="6.1"/>
					</g>
					<g id="XMLID_1900_">
						<circle id="XMLID_1901_" fill="#DAD7C5" cx="277.3" cy="495" r="6.1"/>
					</g>
					<g id="XMLID_1898_">
						<circle id="XMLID_1899_" fill="#DAD7C5" cx="298.7" cy="495" r="6.1"/>
					</g>
					<g id="XMLID_1896_">
						<circle id="XMLID_1897_" fill="#DAD7C5" cx="148.5" cy="515.3" r="6.1"/>
					</g>
					<g id="XMLID_1894_">
						<circle id="XMLID_1895_" fill="#DAD7C5" cx="170" cy="515.3" r="6.1"/>
					</g>
					<g id="XMLID_1892_">
						<circle id="XMLID_1893_" fill="#DAD7C5" cx="191.4" cy="515.3" r="6.1"/>
					</g>
					<g id="XMLID_1890_">
						<circle id="XMLID_1891_" fill="#DAD7C5" cx="212.9" cy="515.3" r="6.1"/>
					</g>
					<g id="XMLID_1888_">
						<circle id="XMLID_1889_" fill="#DAD7C5" cx="234.4" cy="515.3" r="6.1"/>
					</g>
					<g id="XMLID_1886_">
						<circle id="XMLID_1887_" fill="#DAD7C5" cx="255.8" cy="515.3" r="6.1"/>
					</g>
					<g id="XMLID_1884_">
						<circle id="XMLID_1885_" fill="#DAD7C5" cx="277.3" cy="515.3" r="6.1"/>
					</g>
					<g id="XMLID_1882_">
						<circle id="XMLID_1883_" fill="#DAD7C5" cx="298.7" cy="515.3" r="6.1"/>
					</g>
					<g id="XMLID_1880_">
						<circle id="XMLID_1881_" fill="#DAD7C5" cx="148.5" cy="535.6" r="6.1"/>
					</g>
					<g id="XMLID_1878_">
						<circle id="XMLID_1879_" fill="#DAD7C5" cx="170" cy="535.6" r="6.1"/>
					</g>
					<g id="XMLID_1876_">
						<circle id="XMLID_1877_" fill="#DAD7C5" cx="191.4" cy="535.6" r="6.1"/>
					</g>
					<g id="XMLID_1874_">
						<circle id="XMLID_1875_" fill="#DAD7C5" cx="212.9" cy="535.6" r="6.1"/>
					</g>
					<g id="XMLID_1872_">
						<circle id="XMLID_1873_" fill="#DAD7C5" cx="234.4" cy="535.6" r="6.1"/>
					</g>
					<g id="XMLID_1870_">
						<circle id="XMLID_1871_" fill="#DAD7C5" cx="255.8" cy="535.6" r="6.1"/>
					</g>
					<g id="XMLID_1868_">
						<circle id="XMLID_1869_" fill="#DAD7C5" cx="277.3" cy="535.6" r="6.1"/>
					</g>
					<g id="XMLID_1866_">
						<circle id="XMLID_1867_" fill="#DAD7C5" cx="298.7" cy="535.6" r="6.1"/>
					</g>
				</g>
				<g id="XMLID_1863_">
					<rect id="XMLID_1864_" x="323.2" y="513.2" fill="#DAD7C5" width="56.8" height="4.2"/>
				</g>
			</g>
			<g id="XMLID_1767_">
				<path id="XMLID_1776_" fill="#DAD7C5" d="M202.6,607.5c2.8-0.4,6.1-0.7,9.7-0.7c6.6,0,11.2,1.5,14.3,4.4c3.1,2.9,5,7,5,12.7
					c0,5.8-1.8,10.5-5.1,13.7c-3.3,3.3-8.8,5.1-15.6,5.1c-3.3,0-6-0.2-8.3-0.4V607.5z M207.2,638.8c1.2,0.2,2.8,0.3,4.6,0.3
					c9.8,0,15.1-5.5,15.1-15c0.1-8.3-4.7-13.6-14.3-13.6c-2.4,0-4.1,0.2-5.4,0.5V638.8z"/>
				<path id="XMLID_1774_" fill="#DAD7C5" d="M245.3,642.4L233.8,607h4.9l5.5,17.4c1.5,4.8,2.8,9.1,3.8,13.2h0.1
					c1-4.1,2.5-8.6,4-13.2l6-17.5h4.9l-12.6,35.4H245.3z"/>
				<path id="XMLID_1772_" fill="#DAD7C5" d="M271.4,607v35.4h-4.6V607H271.4z"/>
				<path id="XMLID_1770_" fill="#DAD7C5" d="M301,626.5v3.4h-13v-3.4H301z"/>
				<path id="XMLID_1768_" fill="#DAD7C5" d="M322.3,607v35.4h-4.6V607H322.3z"/>
			</g>
			<path id="XMLID_225_" fill="#C1B6A0" d="M205.3,461.5h-64.1c-13.7,0-24.9,11.2-24.9,24.9v36.3c0,25.6,20.8,46.5,46.5,46.5h42.5
				V461.5z"/>
		</g>
		<g id="XMLID_855_">
			<ellipse id="XMLID_352_" fill="#081517" cx="700" cy="569.2" rx="162" ry="22"/>
			<g id="XMLID_1806_">
				<g id="XMLID_1858_">
					<path id="XMLID_1859_" fill="#8AACB9" d="M796.9,569.2H597.5c-25.6,0-46.5-20.8-46.5-46.5v-36.3c0-13.7,11.2-24.9,24.9-24.9
						h242.5c13.7,0,24.9,11.2,24.9,24.9v36.3C843.4,548.3,822.5,569.2,796.9,569.2z"/>
				</g>
				<g id="XMLID_1809_">
					<g id="XMLID_1856_">
						<circle id="XMLID_1857_" fill="#0A3542" cx="583.3" cy="495" r="6.1"/>
					</g>
					<g id="XMLID_1854_">
						<circle id="XMLID_1855_" fill="#0A3542" cx="604.8" cy="495" r="6.1"/>
					</g>
					<g id="XMLID_1852_">
						<circle id="XMLID_1853_" fill="#0A3542" cx="626.2" cy="495" r="6.1"/>
					</g>
					<g id="XMLID_1850_">
						<circle id="XMLID_1851_" fill="#0A3542" cx="647.7" cy="495" r="6.1"/>
					</g>
					<g id="XMLID_1848_">
						<circle id="XMLID_1849_" fill="#0A3542" cx="669.1" cy="495" r="6.1"/>
					</g>
					<g id="XMLID_1846_">
						<circle id="XMLID_1847_" fill="#0A3542" cx="690.6" cy="495" r="6.1"/>
					</g>
					<g id="XMLID_1844_">
						<circle id="XMLID_1845_" fill="#0A3542" cx="712" cy="495" r="6.1"/>
					</g>
					<g id="XMLID_1842_">
						<circle id="XMLID_1843_" fill="#0A3542" cx="733.5" cy="495" r="6.1"/>
					</g>
					<g id="XMLID_1840_">
						<circle id="XMLID_1841_" fill="#0A3542" cx="583.3" cy="515.3" r="6.1"/>
					</g>
					<g id="XMLID_1838_">
						<circle id="XMLID_1839_" fill="#0A3542" cx="604.8" cy="515.3" r="6.1"/>
					</g>
					<g id="XMLID_1836_">
						<circle id="XMLID_1837_" fill="#0A3542" cx="626.2" cy="515.3" r="6.1"/>
					</g>
					<g id="XMLID_1834_">
						<circle id="XMLID_1835_" fill="#0A3542" cx="647.7" cy="515.3" r="6.1"/>
					</g>
					<g id="XMLID_1832_">
						<circle id="XMLID_1833_" fill="#0A3542" cx="669.1" cy="515.3" r="6.1"/>
					</g>
					<g id="XMLID_1830_">
						<circle id="XMLID_1831_" fill="#0A3542" cx="690.6" cy="515.3" r="6.1"/>
					</g>
					<g id="XMLID_1828_">
						<circle id="XMLID_1829_" fill="#0A3542" cx="712" cy="515.3" r="6.1"/>
					</g>
					<g id="XMLID_1826_">
						<circle id="XMLID_1827_" fill="#0A3542" cx="733.5" cy="515.3" r="6.1"/>
					</g>
					<g id="XMLID_1824_">
						<circle id="XMLID_1825_" fill="#0A3542" cx="583.3" cy="535.6" r="6.1"/>
					</g>
					<g id="XMLID_1822_">
						<circle id="XMLID_1823_" fill="#0A3542" cx="604.8" cy="535.6" r="6.1"/>
					</g>
					<g id="XMLID_1820_">
						<circle id="XMLID_1821_" fill="#0A3542" cx="626.2" cy="535.6" r="6.1"/>
					</g>
					<g id="XMLID_1818_">
						<circle id="XMLID_1819_" fill="#0A3542" cx="647.7" cy="535.6" r="6.1"/>
					</g>
					<g id="XMLID_1816_">
						<circle id="XMLID_1817_" fill="#0A3542" cx="669.1" cy="535.6" r="6.1"/>
					</g>
					<g id="XMLID_1814_">
						<circle id="XMLID_1815_" fill="#0A3542" cx="690.6" cy="535.6" r="6.1"/>
					</g>
					<g id="XMLID_1812_">
						<circle id="XMLID_1813_" fill="#0A3542" cx="712" cy="535.6" r="6.1"/>
					</g>
					<g id="XMLID_1810_">
						<circle id="XMLID_1811_" fill="#0A3542" cx="733.5" cy="535.6" r="6.1"/>
					</g>
				</g>
				<g id="XMLID_1807_">
					<rect id="XMLID_1808_" x="768.2" y="513.2" fill="#0A3542" width="41.3" height="4.2"/>
				</g>
			</g>
			<g id="XMLID_1779_">
				<path id="XMLID_1789_" fill="#DAD7C5" d="M625.2,607.5c2.8-0.4,6.1-0.7,9.7-0.7c6.6,0,11.2,1.5,14.3,4.4c3.1,2.9,5,7,5,12.7
					c0,5.8-1.8,10.5-5.1,13.7c-3.3,3.3-8.8,5.1-15.6,5.1c-3.3,0-6-0.2-8.3-0.4V607.5z M629.7,638.8c1.2,0.2,2.8,0.3,4.6,0.3
					c9.8,0,15.1-5.5,15.1-15c0.1-8.3-4.7-13.6-14.3-13.6c-2.4,0-4.1,0.2-5.4,0.5V638.8z"/>
				<path id="XMLID_1787_" fill="#DAD7C5" d="M667.9,642.4L656.3,607h4.9l5.5,17.4c1.5,4.8,2.8,9.1,3.8,13.2h0.1
					c1-4.1,2.5-8.6,4-13.2l6-17.5h4.9l-12.6,35.4H667.9z"/>
				<path id="XMLID_1785_" fill="#DAD7C5" d="M693.9,607v35.4h-4.6V607H693.9z"/>
				<path id="XMLID_1783_" fill="#DAD7C5" d="M723.6,626.5v3.4h-13v-3.4H723.6z"/>
				<path id="XMLID_1780_" fill="#DAD7C5" d="M740.2,607.5c2.8-0.4,6.1-0.7,9.7-0.7c6.6,0,11.2,1.5,14.3,4.4c3.1,2.9,5,7,5,12.7
					c0,5.8-1.8,10.5-5.1,13.7c-3.3,3.3-8.8,5.1-15.6,5.1c-3.3,0-6-0.2-8.3-0.4V607.5z M744.8,638.8c1.2,0.2,2.8,0.3,4.6,0.3
					c9.8,0,15.1-5.5,15.1-15c0.1-8.3-4.7-13.6-14.3-13.6c-2.4,0-4.1,0.2-5.4,0.5V638.8z"/>
			</g>
			<path id="XMLID_226_" fill="#9AC0CE" d="M652.5,461.5h-76.6c-13.7,0-24.9,11.2-24.9,24.9v36.3c0,25.6,20.8,46.5,46.5,46.5h55
				V461.5z"/>
		</g>
		<g id="XMLID_847_">
			<ellipse id="XMLID_347_" fill="#081517" cx="259.6" cy="801.1" rx="103.7" ry="22"/>
			<g id="XMLID_1948_">
				<g id="XMLID_1951_">
					<path id="XMLID_1952_" fill="#C7B570" d="M338.5,801.1H186.4v-41.9l18.4-25h115.8l17.9,25.1V801.1z"/>
				</g>
				<g id="XMLID_1949_">
					<rect id="XMLID_1950_" x="230.7" y="771.9" fill="#71535C" width="63.5" height="10.5"/>
				</g>
			</g>
			<g id="XMLID_1721_">
				<path id="XMLID_1740_" fill="#DAD7C5" d="M145.5,843.1v20.9c0,7.9,3.5,11.3,8.2,11.3c5.2,0,8.6-3.5,8.6-11.3v-20.9h4.6v20.6
					c0,10.9-5.7,15.3-13.4,15.3c-7.2,0-12.7-4.1-12.7-15.1v-20.8H145.5z"/>
				<path id="XMLID_1738_" fill="#DAD7C5" d="M174.3,872.9c2,1.3,5,2.3,8.2,2.3c4.7,0,7.4-2.5,7.4-6c0-3.3-1.9-5.2-6.7-7
					c-5.8-2-9.3-5-9.3-10c0-5.5,4.6-9.6,11.4-9.6c3.6,0,6.2,0.8,7.8,1.7l-1.3,3.7c-1.2-0.6-3.5-1.7-6.7-1.7c-4.8,0-6.7,2.9-6.7,5.3
					c0,3.3,2.2,4.9,7,6.8c6,2.3,9,5.2,9,10.4c0,5.5-4,10.2-12.4,10.2c-3.4,0-7.1-1-9-2.3L174.3,872.9z"/>
				<path id="XMLID_1734_" fill="#DAD7C5" d="M200.7,843.6c2-0.4,5.1-0.7,8.3-0.7c4.6,0,7.5,0.8,9.7,2.6c1.8,1.4,2.9,3.5,2.9,6.2
					c0,3.4-2.3,6.4-6,7.8v0.1c3.4,0.8,7.3,3.6,7.3,8.9c0,3-1.2,5.4-3,7.1c-2.5,2.3-6.5,3.3-12.2,3.3c-3.1,0-5.6-0.2-7.1-0.4V843.6z
					 M205.3,858.1h4.1c4.8,0,7.7-2.5,7.7-5.9c0-4.1-3.1-5.8-7.8-5.8c-2.1,0-3.3,0.2-4,0.3V858.1z M205.3,875
					c0.9,0.2,2.2,0.2,3.8,0.2c4.7,0,9.1-1.7,9.1-6.9c0-4.8-4.1-6.8-9.1-6.8h-3.8V875z"/>
				<path id="XMLID_1732_" fill="#DAD7C5" d="M270.1,863c-0.3-4.9-0.6-10.9-0.5-15.3h-0.2c-1.2,4.1-2.7,8.6-4.5,13.4l-6.2,17.2h-3.5
					l-5.7-16.8c-1.7-5-3.1-9.5-4.1-13.7h-0.1c-0.1,4.4-0.4,10.3-0.7,15.6l-0.9,15.2h-4.4l2.5-35.4h5.8l6,17.1
					c1.5,4.4,2.7,8.2,3.6,11.9h0.2c0.9-3.6,2.2-7.5,3.7-11.9l6.3-17.1h5.8l2.2,35.4H271L270.1,863z"/>
				<path id="XMLID_1730_" fill="#DAD7C5" d="M287,843.1v35.4h-4.6v-35.4H287z"/>
				<path id="XMLID_1728_" fill="#DAD7C5" d="M319.7,877.3c-1.7,0.8-5,1.7-9.3,1.7c-10,0-17.5-6.3-17.5-17.9
					c0-11.1,7.5-18.6,18.5-18.6c4.4,0,7.2,0.9,8.4,1.6l-1.1,3.7c-1.7-0.8-4.2-1.5-7.1-1.5c-8.3,0-13.8,5.3-13.8,14.6
					c0,8.7,5,14.2,13.6,14.2c2.8,0,5.6-0.6,7.5-1.5L319.7,877.3z"/>
				<path id="XMLID_1725_" fill="#DAD7C5" d="M325.4,843.6c2.3-0.5,5.6-0.7,8.8-0.7c4.9,0,8,0.9,10.2,2.9c1.8,1.6,2.8,4,2.8,6.7
					c0,4.7-2.9,7.8-6.7,9v0.2c2.7,0.9,4.4,3.5,5.2,7.1c1.2,4.9,2,8.3,2.7,9.7h-4.7c-0.6-1-1.4-4-2.4-8.4c-1-4.9-2.9-6.7-7.1-6.9H330
					v15.3h-4.6V843.6z M330,859.7h4.7c4.9,0,8-2.7,8-6.7c0-4.6-3.3-6.6-8.1-6.6c-2.2,0-3.8,0.2-4.5,0.4V859.7z"/>
				<path id="XMLID_1722_" fill="#DAD7C5" d="M384,860.4c0,12.2-7.4,18.6-16.4,18.6c-9.3,0-15.9-7.2-15.9-17.9
					c0-11.2,7-18.6,16.4-18.6C377.8,842.6,384,850,384,860.4z M356.6,861c0,7.6,4.1,14.3,11.3,14.3c7.2,0,11.3-6.7,11.3-14.7
					c0-7-3.7-14.4-11.3-14.4C360.3,846.3,356.6,853.3,356.6,861z"/>
			</g>
			<polygon id="XMLID_349_" fill="#ACB779" points="240.5,734.2 204.8,734.2 186.4,759.2 186.4,801.1 240.5,801.1 			"/>
		</g>
		<g id="XMLID_848_">
			<ellipse id="XMLID_353_" fill="#081517" cx="700" cy="813" rx="129.5" ry="22"/>
			<g id="XMLID_1993_">
				<g id="XMLID_1996_">
					<path id="XMLID_1997_" fill="#F26C63" d="M630.7,813l-19-10.7c-5.7-4.2-8.9-10.5-8.9-17.2v-40.6c0-12.3,11-22.2,24.5-22.2
						h164.3v76H772v14.2L630.7,813z"/>
				</g>
				<g id="XMLID_1994_">
					<polygon id="XMLID_1995_" fill="#0A3542" points="758.7,780.6 641,780.6 641,770.1 748.2,770.1 748.2,747.7 758.7,747.7 					
						"/>
				</g>
			</g>
			<g id="XMLID_1755_">
				<path id="XMLID_1764_" fill="#DAD7C5" d="M646,873c2,1.3,5,2.3,8.2,2.3c4.7,0,7.4-2.5,7.4-6c0-3.3-1.9-5.2-6.7-7
					c-5.8-2-9.3-5-9.3-10c0-5.5,4.6-9.6,11.4-9.6c3.6,0,6.2,0.8,7.8,1.7l-1.3,3.7c-1.2-0.6-3.5-1.7-6.7-1.7c-4.8,0-6.7,2.9-6.7,5.3
					c0,3.3,2.2,4.9,7,6.8c6,2.3,9,5.2,9,10.4c0,5.5-4,10.2-12.4,10.2c-3.4,0-7.1-1-9-2.3L646,873z"/>
				<path id="XMLID_1761_" fill="#DAD7C5" d="M678.2,867.4l-3.7,11.1h-4.7l12-35.4h5.5l12.1,35.4h-4.9l-3.8-11.1H678.2z
					 M689.8,863.9l-3.5-10.2c-0.8-2.3-1.3-4.4-1.8-6.5h-0.1c-0.5,2.1-1.1,4.3-1.8,6.4l-3.5,10.2H689.8z"/>
				<path id="XMLID_1759_" fill="#DAD7C5" d="M707.3,847.1h-10.8v-3.9h26.2v3.9h-10.8v31.5h-4.6V847.1z"/>
				<path id="XMLID_1756_" fill="#DAD7C5" d="M728.4,867.4l-3.7,11.1H720l12-35.4h5.5l12.1,35.4h-4.9l-3.8-11.1H728.4z M740,863.9
					l-3.5-10.2c-0.8-2.3-1.3-4.4-1.8-6.5h-0.1c-0.5,2.1-1.1,4.3-1.8,6.4l-3.5,10.2H740z"/>
			</g>
			<path id="XMLID_350_" fill="#DD898A" d="M675.3,722.3h-47.9c-13.5,0-24.5,10-24.5,22.2v40.6c0,6.7,3.2,12.9,8.9,17.2l19,10.7
				l44.5-0.2V722.3z"/>
		</g>
		<g id="XMLID_849_">
			<ellipse id="XMLID_533_" fill="#081517" cx="1128.6" cy="807.5" rx="162" ry="22"/>
			<g id="XMLID_1984_">
				<g id="XMLID_1989_">
					<path id="XMLID_1990_" fill="#B0A690" d="M1234.8,807.5h-204v-27.7h-26.6v-38.2h45.2v-13.8h166.8v13.8h45.2v38.2h-26.6V807.5z"
						/>
				</g>
				<g id="XMLID_1985_">
					<path id="XMLID_1986_" fill="#71535C" d="M1216.1,786.7h-164.7v-23.1h164.7V786.7z"/>
				</g>
			</g>
			<g id="XMLID_1742_">
				<path id="XMLID_1753_" fill="#DAD7C5" d="M1086.7,862H1073v12.7h15.3v3.8h-19.9v-35.4h19.1v3.8H1073v11.2h13.7V862z"/>
				<path id="XMLID_1751_" fill="#DAD7C5" d="M1093.6,873c2,1.3,5,2.3,8.2,2.3c4.7,0,7.4-2.5,7.4-6c0-3.3-1.9-5.2-6.7-7
					c-5.8-2-9.3-5-9.3-10c0-5.5,4.6-9.6,11.4-9.6c3.6,0,6.2,0.8,7.8,1.7l-1.3,3.7c-1.2-0.6-3.5-1.7-6.7-1.7c-4.8,0-6.7,2.9-6.7,5.3
					c0,3.3,2.2,4.9,7,6.8c6,2.3,9,5.2,9,10.4c0,5.5-4,10.2-12.4,10.2c-3.4,0-7.1-1-9-2.3L1093.6,873z"/>
				<path id="XMLID_1748_" fill="#DAD7C5" d="M1125.8,867.4l-3.7,11.1h-4.7l12-35.4h5.5l12.1,35.4h-4.9l-3.8-11.1H1125.8z
					 M1137.4,863.9l-3.5-10.2c-0.8-2.3-1.3-4.4-1.8-6.5h-0.1c-0.5,2.1-1.1,4.3-1.8,6.4l-3.5,10.2H1137.4z"/>
				<path id="XMLID_1746_" fill="#DAD7C5" d="M1154.9,847.1h-10.8v-3.9h26.2v3.9h-10.8v31.5h-4.6V847.1z"/>
				<path id="XMLID_1743_" fill="#DAD7C5" d="M1176,867.4l-3.7,11.1h-4.7l12-35.4h5.5l12.1,35.4h-4.9l-3.8-11.1H1176z M1187.6,863.9
					l-3.5-10.2c-0.8-2.3-1.3-4.4-1.8-6.5h-0.1c-0.5,2.1-1.1,4.3-1.8,6.4l-3.5,10.2H1187.6z"/>
			</g>
			<polygon id="XMLID_351_" fill="#C1B6A0" points="1106.6,807.5 1106.6,727.8 1049.4,727.8 1049.4,741.6 1004.2,741.6 
				1004.2,779.8 1030.8,779.8 1030.8,807.5 			"/>
		</g>
	</g>
</g>
</svg>
