<?xml version="1.0" encoding="utf-8"?>
<!-- Generator: Adobe Illustrator 19.0.0, SVG Export Plug-In . SVG Version: 6.00 Build 0)  -->
<svg version="1.1" id="Layer_1" xmlns="http://www.w3.org/2000/svg" xmlns:xlink="http://www.w3.org/1999/xlink" x="0px" y="0px"
	 width="1400px" height="980px" viewBox="0 0 1400 980" enable-background="new 0 0 1400 980" xml:space="preserve">
<g id="XMLID_14_">
	<rect id="XMLID_2693_" fill="#0A3542" width="1400" height="980"/>
	<g id="XMLID_123_">
		<g id="XMLID_545_">
			<ellipse id="XMLID_542_" fill="#081517" cx="521.1" cy="268.7" rx="122.3" ry="22"/>
			<g id="XMLID_1200_">
				<path id="XMLID_1452_" fill="#C6CDC7" d="M453.2,320.9h-9.9v9.2h11.1v2.8h-14.4v-25.6h13.8v2.8h-10.5v8.1h9.9V320.9z"/>
				<path id="XMLID_1447_" fill="#C6CDC7" d="M464.1,310.1h-7.8v-2.8h18.9v2.8h-7.8v22.8h-3.3V310.1z"/>
				<path id="XMLID_1440_" fill="#C6CDC7" d="M481.4,307.3V318h12.4v-10.7h3.3v25.6h-3.3v-12h-12.4v12h-3.3v-25.6H481.4z"/>
				<path id="XMLID_1434_" fill="#C6CDC7" d="M516.1,320.9h-9.9v9.2h11.1v2.8h-14.4v-25.6h13.8v2.8h-10.5v8.1h9.9V320.9z"/>
				<path id="XMLID_1207_" fill="#C6CDC7" d="M521.5,307.6c1.7-0.3,4.1-0.5,6.3-0.5c3.5,0,5.8,0.6,7.4,2.1c1.3,1.1,2,2.9,2,4.9
					c0,3.4-2.1,5.6-4.8,6.5v0.1c2,0.7,3.1,2.5,3.8,5.2c0.8,3.6,1.4,6,2,7h-3.4c-0.4-0.7-1-2.9-1.7-6.1c-0.8-3.5-2.1-4.9-5.1-5h-3.1
					v11.1h-3.3V307.6z M524.8,319.3h3.4c3.5,0,5.8-1.9,5.8-4.9c0-3.3-2.4-4.7-5.9-4.8c-1.6,0-2.7,0.2-3.3,0.3V319.3z"/>
				<path id="XMLID_1205_" fill="#C6CDC7" d="M541.9,332.9v-25.6h3.6l8.2,12.9c1.9,3,3.4,5.7,4.6,8.3l0.1,0
					c-0.3-3.4-0.4-6.5-0.4-10.5v-10.7h3.1v25.6h-3.3l-8.1-13c-1.8-2.8-3.5-5.8-4.8-8.5l-0.1,0c0.2,3.2,0.3,6.3,0.3,10.5v10.9H541.9z
					"/>
				<path id="XMLID_1203_" fill="#C6CDC7" d="M580.1,320.9h-9.9v9.2h11.1v2.8h-14.4v-25.6h13.8v2.8h-10.5v8.1h9.9V320.9z"/>
				<path id="XMLID_1201_" fill="#C6CDC7" d="M591,310.1h-7.8v-2.8h18.9v2.8h-7.8v22.8H591V310.1z"/>
			</g>
			<g id="XMLID_2483_">
				<g id="XMLID_2515_">
					<g id="XMLID_2516_">
						<path id="XMLID_2517_" fill="#8AACB9" d="M604.4,267.5H437.7V100.9h166.6V267.5z"/>
					</g>
				</g>
				<g id="XMLID_2510_">
					<g id="XMLID_2511_">
						<path id="XMLID_2512_" fill="#DAD7C5" d="M546.3,246.3h-50.4v-21.4h-37.6V121.4h125.6v103.5h-37.6V246.3z"/>
					</g>
				</g>
				<g id="XMLID_2499_">
					<g id="XMLID_2505_">
						<g id="XMLID_2506_">
							<path id="XMLID_2507_" fill="#837722" d="M488.4,224.9h-30.1v-20.8h30.1V224.9z"/>
						</g>
					</g>
					<g id="XMLID_2500_">
						<g id="XMLID_2501_">
							<path id="XMLID_2502_" fill="#FEC77C" d="M583.8,224.9h-30.1v-20.8h30.1V224.9z"/>
						</g>
					</g>
				</g>
				<g id="XMLID_2484_">
					<g id="XMLID_2497_">
						<rect id="XMLID_2498_" x="476.9" y="141.1" fill="#0A3542" width="6.8" height="17.1"/>
					</g>
					<g id="XMLID_2495_">
						<rect id="XMLID_2496_" x="490.5" y="141.1" fill="#0A3542" width="6.8" height="17.1"/>
					</g>
					<g id="XMLID_2493_">
						<rect id="XMLID_2494_" x="504.1" y="141.1" fill="#0A3542" width="6.8" height="17.1"/>
					</g>
					<g id="XMLID_2491_">
						<rect id="XMLID_2492_" x="517.6" y="141.1" fill="#0A3542" width="6.8" height="17.1"/>
					</g>
					<g id="XMLID_2489_">
						<rect id="XMLID_2490_" x="531.2" y="141.1" fill="#0A3542" width="6.8" height="17.1"/>
					</g>
					<g id="XMLID_2487_">
						<rect id="XMLID_2488_" x="544.8" y="141.1" fill="#0A3542" width="6.8" height="17.1"/>
					</g>
					<g id="XMLID_2485_">
						<rect id="XMLID_2486_" x="558.4" y="141.1" fill="#0A3542" width="6.8" height="17.1"/>
					</g>
				</g>
				<g id="XMLID_2030_">
					<g id="XMLID_2031_">
						<path id="XMLID_2032_" fill="#9AC0CE" d="M495.1,267.5h-57.4V100.9h57.4V267.5z"/>
					</g>
				</g>
			</g>
		</g>
		<g id="XMLID_345_">
			<ellipse id="XMLID_543_" fill="#081517" cx="241.3" cy="261" rx="88.9" ry="22"/>
			<g id="XMLID_2520_">
				<g id="XMLID_2555_">
					<g id="XMLID_2559_">
						<g id="XMLID_2560_">
							<path id="XMLID_2561_" fill="none" d="M241.3,111.7v145c40,0,72.5-32.5,72.5-72.5C313.8,144.2,281.3,111.7,241.3,111.7z"/>
						</g>
					</g>
					<g id="XMLID_2556_">
						<g id="XMLID_2557_">
							<path id="XMLID_2558_" fill="none" d="M168.8,184.2c0,40,32.5,72.5,72.5,72.5v-145C201.2,111.7,168.8,144.2,168.8,184.2z"/>
						</g>
					</g>
				</g>
				<g id="XMLID_2550_">
					<g id="XMLID_2551_">
						<path id="XMLID_2552_" fill="#F26C63" d="M241.3,261c-42.3,0-76.8-34.4-76.8-76.8c0-42.3,34.4-76.8,76.8-76.8
							c42.3,0,76.8,34.4,76.8,76.8C318,226.6,283.6,261,241.3,261z"/>
					</g>
				</g>
				<g id="XMLID_2545_">
					<g id="XMLID_2546_">
						<path id="XMLID_2547_" fill="#FEC77C" d="M241.3,243.8c-12.1,0-23.7-3.6-33.7-10.4l-1.1-0.8v-19.9h-17.6l-0.7-1.4
							c-4.3-8.5-6.5-17.6-6.5-27.1c0-26.5,17-49.4,42.3-57l3.3-1v12.7h27.9v-12.7l3.3,1c25.3,7.7,42.3,30.6,42.3,57
							c0,9.5-2.2,18.6-6.5,27.1l-0.7,1.4h-17.6v19.9l-1.1,0.8C265,240.2,253.4,243.8,241.3,243.8z"/>
					</g>
				</g>
				<g id="XMLID_2540_">
					<g id="XMLID_2541_">
						<path id="XMLID_2542_" fill="#0A3542" d="M252.9,192.5h-23.4v-37.6h23.4V192.5z"/>
					</g>
				</g>
				<g id="XMLID_2521_">
					<g id="XMLID_2537_">
						<g id="XMLID_2538_">
							<circle id="XMLID_2539_" fill="#0A3542" cx="210.5" cy="157.4" r="6.3"/>
						</g>
					</g>
					<g id="XMLID_2534_">
						<g id="XMLID_2535_">
							<circle id="XMLID_2536_" fill="#0A3542" cx="201.9" cy="189.9" r="6.3"/>
						</g>
					</g>
					<g id="XMLID_2531_">
						<g id="XMLID_2532_">
							<circle id="XMLID_2533_" fill="#0A3542" cx="225.1" cy="219" r="6.3"/>
						</g>
					</g>
					<g id="XMLID_2528_">
						<g id="XMLID_2529_">
							<circle id="XMLID_2530_" fill="#0A3542" cx="255.9" cy="219" r="6.3"/>
						</g>
					</g>
					<g id="XMLID_2525_">
						<g id="XMLID_2526_">
							<circle id="XMLID_2527_" fill="#0A3542" cx="280.6" cy="189.9" r="6.3"/>
						</g>
					</g>
					<g id="XMLID_2522_">
						<g id="XMLID_2523_">
							<circle id="XMLID_2524_" fill="#0A3542" cx="270.5" cy="157.4" r="6.3"/>
						</g>
					</g>
				</g>
				<g id="XMLID_1998_">
					<g id="XMLID_2001_">
						<path id="XMLID_2002_" fill="#DD898A" d="M241.3,261c-42.3,0-76.8-34.4-76.8-76.8c0-42.3,34.4-76.8,76.8-76.8V261z"/>
					</g>
				</g>
			</g>
			<g id="XMLID_2326_">
				<g id="XMLID_2336_">
					<path id="XMLID_2337_" fill="#C6CDC7" d="M204.4,302.7c1.8-0.3,4.1-0.6,7.1-0.6c3.7,0,6.4,0.9,8.1,2.4c1.6,1.4,2.5,3.5,2.5,6
						c0,2.6-0.8,4.6-2.2,6.1c-2,2.1-5.2,3.2-8.8,3.2c-1.1,0-2.1,0-3-0.3v11.5h-3.7V302.7z M208.1,316.6c0.8,0.2,1.8,0.3,3.1,0.3
						c4.5,0,7.2-2.2,7.2-6.1c0-3.8-2.7-5.6-6.8-5.6c-1.6,0-2.9,0.1-3.5,0.3V316.6z"/>
				</g>
				<g id="XMLID_2333_">
					<path id="XMLID_2334_" fill="#C6CDC7" d="M226.6,326.6c1.7,1,4.1,1.9,6.7,1.9c3.8,0,6-2,6-4.9c0-2.7-1.5-4.2-5.4-5.7
						c-4.7-1.7-7.6-4.1-7.6-8.1c0-4.5,3.7-7.8,9.3-7.8c2.9,0,5.1,0.7,6.4,1.4l-1,3c-0.9-0.5-2.9-1.4-5.5-1.4c-3.9,0-5.4,2.3-5.4,4.3
						c0,2.7,1.7,4,5.7,5.5c4.9,1.9,7.3,4.2,7.3,8.4c0,4.4-3.3,8.3-10.1,8.3c-2.8,0-5.8-0.8-7.3-1.8L226.6,326.6z"/>
				</g>
				<g id="XMLID_2330_">
					<path id="XMLID_2331_" fill="#C6CDC7" d="M244.8,332.9l11.9-30.9h2.9l-11.9,30.9H244.8z"/>
				</g>
				<g id="XMLID_2327_">
					<path id="XMLID_2328_" fill="#C6CDC7" d="M261.4,331.2v-2.3l2.9-2.9c7.1-6.7,10.3-10.3,10.3-14.5c0-2.8-1.4-5.4-5.5-5.4
						c-2.5,0-4.6,1.3-5.9,2.3l-1.2-2.6c1.9-1.6,4.6-2.8,7.8-2.8c6,0,8.5,4.1,8.5,8.1c0,5.1-3.7,9.3-9.6,14.9l-2.2,2v0.1h12.5v3.1
						H261.4z"/>
				</g>
			</g>
		</g>
		<g id="XMLID_546_">
			<ellipse id="XMLID_541_" fill="#081517" cx="816.9" cy="254.4" rx="122.3" ry="22"/>
			<g id="XMLID_2465_">
				<g id="XMLID_2478_">
					<g id="XMLID_2479_">
						<path id="XMLID_2480_" fill="#C7B570" d="M901.8,254.4H735.2V114.1h166.6V254.4z"/>
					</g>
				</g>
				<g id="XMLID_2473_">
					<g id="XMLID_2474_">
						<path id="XMLID_2475_" fill="#767769" d="M839.4,238.1h-41.9v-13.7h-15.4v-13.7h-27.2v-79.9H882v79.9h-27.2v13.7h-15.4V238.1z
							"/>
					</g>
				</g>
				<g id="XMLID_2466_">
					<g id="XMLID_2470_">
						<g id="XMLID_2471_">
							<rect id="XMLID_2472_" x="807.1" y="145.2" fill="#C7B570" width="6.8" height="17.7"/>
						</g>
					</g>
					<g id="XMLID_2467_">
						<g id="XMLID_2468_">
							<rect id="XMLID_2469_" x="823" y="145.2" fill="#C7B570" width="6.8" height="17.7"/>
						</g>
					</g>
				</g>
				<g id="XMLID_2513_">
					<g id="XMLID_2518_">
						<path id="XMLID_2543_" fill="#ACB779" d="M795.6,254.4h-60.4V114.1h60.4V254.4z"/>
					</g>
				</g>
			</g>
			<g id="XMLID_2286_">
				<g id="XMLID_2301_">
					<path id="XMLID_2302_" fill="#C6CDC7" d="M772.3,319.8c-0.2-4-0.5-8.8-0.4-12.4h-0.1c-1,3.4-2.2,7-3.6,10.9l-5.1,14h-2.8
						l-4.7-13.7c-1.4-4.1-2.5-7.8-3.3-11.2h-0.1c-0.1,3.6-0.3,8.4-0.6,12.7l-0.8,12.3h-3.5l2-28.8h4.7l4.9,13.9
						c1.2,3.5,2.2,6.7,2.9,9.7h0.1c0.7-2.9,1.7-6.1,3-9.7l5.1-13.9h4.7l1.8,28.8H773L772.3,319.8z"/>
				</g>
				<g id="XMLID_2297_">
					<path id="XMLID_2298_" fill="#C6CDC7" d="M806.9,317.7c0,9.9-6,15.1-13.4,15.1c-7.6,0-12.9-5.9-12.9-14.6
						c0-9.1,5.7-15.1,13.4-15.1C801.8,303.2,806.9,309.2,806.9,317.7z M784.6,318.2c0,6.1,3.3,11.6,9.2,11.6c5.9,0,9.2-5.4,9.2-11.9
						c0-5.7-3-11.7-9.2-11.7C787.7,306.2,784.6,311.9,784.6,318.2z"/>
				</g>
				<g id="XMLID_2293_">
					<path id="XMLID_2294_" fill="#C6CDC7" d="M811.7,304c2.3-0.3,4.9-0.6,7.9-0.6c5.3,0,9.1,1.2,11.6,3.6c2.6,2.3,4.1,5.7,4.1,10.3
						c0,4.7-1.5,8.5-4.1,11.2c-2.7,2.7-7.1,4.1-12.7,4.1c-2.6,0-4.9-0.1-6.7-0.3V304z M815.4,329.5c0.9,0.2,2.3,0.2,3.8,0.2
						c7.9,0,12.2-4.4,12.2-12.2c0-6.8-3.8-11.1-11.6-11.1c-1.9,0-3.4,0.2-4.4,0.4V329.5z"/>
				</g>
				<g id="XMLID_2290_">
					<path id="XMLID_2291_" fill="#C6CDC7" d="M855,318.9h-11.2v10.4h12.5v3.1h-16.2v-28.8h15.5v3.1h-11.8v9.1H855V318.9z"/>
				</g>
				<g id="XMLID_2287_">
					<path id="XMLID_2288_" fill="#C6CDC7" d="M885.3,319.8c-0.2-4-0.5-8.8-0.4-12.4h-0.1c-1,3.4-2.2,7-3.6,10.9l-5.1,14h-2.8
						l-4.6-13.7c-1.4-4.1-2.5-7.8-3.3-11.2h-0.1c-0.1,3.6-0.3,8.4-0.6,12.7l-0.8,12.3h-3.5l2-28.8h4.7l4.9,13.9
						c1.2,3.5,2.2,6.7,2.9,9.7h0.1c0.7-2.9,1.8-6.1,3-9.7l5.1-13.9h4.7l1.8,28.8H886L885.3,319.8z"/>
				</g>
			</g>
		</g>
		<g id="XMLID_547_">
			<ellipse id="XMLID_540_" fill="#081517" cx="1111.6" cy="246.7" rx="95.6" ry="22"/>
			<g id="XMLID_2573_">
				<g id="XMLID_2584_">
					<g id="XMLID_2585_">
						<path id="XMLID_2586_" fill="#B0A690" d="M1153.1,246.7h-83l-19.2-26.7v-12.8c-9.4-2-16.5-10.4-16.5-20.4
							c0-10,7.1-18.4,16.5-20.4v-44.6h121.4v44.6c9.4,2,16.5,10.4,16.5,20.4c0,10-7.1,18.4-16.5,20.4V220L1153.1,246.7z"/>
					</g>
				</g>
				<g id="XMLID_2579_">
					<g id="XMLID_2580_">
						<path id="XMLID_2581_" fill="#DAD7C5" d="M1144.1,231.1h-65l-12.8-17.8v-75.9h90.6v75.9L1144.1,231.1z"/>
					</g>
				</g>
				<g id="XMLID_2574_">
					<g id="XMLID_2575_">
						<path id="XMLID_2576_" fill="#F26C63" d="M1111.6,207.6c-12.9,0-23.4-10.5-23.4-23.4c0-12.9,10.5-23.4,23.4-23.4
							c12.9,0,23.4,10.5,23.4,23.4C1135,197.1,1124.5,207.6,1111.6,207.6z"/>
					</g>
				</g>
			</g>
			<g id="XMLID_2379_">
				<g id="XMLID_2418_">
					<path id="XMLID_2419_" fill="#C6CDC7" d="M997.4,317.7c0,9.9-6,15.1-13.4,15.1c-7.6,0-12.9-5.9-12.9-14.6
						c0-9.1,5.7-15.1,13.4-15.1C992.3,303.2,997.4,309.2,997.4,317.7z M975.1,318.2c0,6.1,3.3,11.6,9.2,11.6c5.9,0,9.2-5.4,9.2-11.9
						c0-5.7-3-11.7-9.2-11.7C978.1,306.2,975.1,311.9,975.1,318.2z"/>
				</g>
				<g id="XMLID_2414_">
					<path id="XMLID_2415_" fill="#C6CDC7" d="M1002.2,304c1.8-0.3,4.1-0.6,7.1-0.6c3.7,0,6.4,0.9,8.1,2.4c1.6,1.4,2.5,3.5,2.5,6
						c0,2.6-0.8,4.6-2.2,6.1c-2,2.1-5.2,3.2-8.8,3.2c-1.1,0-2.1,0-3-0.3v11.5h-3.7V304z M1005.9,317.8c0.8,0.2,1.8,0.3,3.1,0.3
						c4.5,0,7.2-2.2,7.2-6.1c0-3.8-2.7-5.6-6.8-5.6c-1.6,0-2.9,0.1-3.5,0.3V317.8z"/>
				</g>
				<g id="XMLID_2411_">
					<path id="XMLID_2412_" fill="#C6CDC7" d="M1030.3,306.8h-8.7v-3.2h21.3v3.2h-8.8v25.6h-3.8V306.8z"/>
				</g>
				<g id="XMLID_2408_">
					<path id="XMLID_2409_" fill="#C6CDC7" d="M1049.8,303.6v28.8h-3.7v-28.8H1049.8z"/>
				</g>
				<g id="XMLID_2405_">
					<path id="XMLID_2406_" fill="#C6CDC7" d="M1076.3,331.5c-1.4,0.7-4.1,1.4-7.6,1.4c-8.1,0-14.2-5.1-14.2-14.5
						c0-9,6.1-15.1,15-15.1c3.6,0,5.8,0.8,6.8,1.3l-0.9,3c-1.4-0.7-3.4-1.2-5.8-1.2c-6.7,0-11.2,4.3-11.2,11.9c0,7,4.1,11.6,11,11.6
						c2.3,0,4.6-0.5,6.1-1.2L1076.3,331.5z"/>
				</g>
				<g id="XMLID_2401_">
					<path id="XMLID_2402_" fill="#C6CDC7" d="M1085.8,323.3l-3,9h-3.8l9.8-28.8h4.5l9.8,28.8h-4l-3.1-9H1085.8z M1095.2,320.4
						l-2.8-8.3c-0.6-1.9-1.1-3.6-1.5-5.2h-0.1c-0.4,1.7-0.9,3.5-1.4,5.2l-2.8,8.3H1095.2z"/>
				</g>
				<g id="XMLID_2398_">
					<path id="XMLID_2399_" fill="#C6CDC7" d="M1107.3,303.6h3.7v25.6h12.3v3.1h-16V303.6z"/>
				</g>
				<g id="XMLID_2394_">
					<path id="XMLID_2395_" fill="#C6CDC7" d="M1141.1,323.3l-3,9h-3.8l9.8-28.8h4.5l9.8,28.8h-4l-3.1-9H1141.1z M1150.5,320.4
						l-2.8-8.3c-0.6-1.9-1.1-3.6-1.5-5.2h-0.1c-0.4,1.7-0.9,3.5-1.4,5.2l-2.8,8.3H1150.5z"/>
				</g>
				<g id="XMLID_2391_">
					<path id="XMLID_2392_" fill="#C6CDC7" d="M1165,303.6v17c0,6.4,2.9,9.2,6.7,9.2c4.3,0,7-2.8,7-9.2v-17h3.8v16.8
						c0,8.8-4.7,12.5-10.9,12.5c-5.9,0-10.3-3.4-10.3-12.3v-16.9H1165z"/>
				</g>
				<g id="XMLID_2387_">
					<path id="XMLID_2388_" fill="#C6CDC7" d="M1188.9,304c2.3-0.3,4.9-0.6,7.9-0.6c5.3,0,9.1,1.2,11.6,3.6
						c2.6,2.3,4.1,5.7,4.1,10.3c0,4.7-1.5,8.5-4.1,11.2c-2.7,2.7-7.1,4.1-12.7,4.1c-2.6,0-4.9-0.1-6.7-0.3V304z M1192.6,329.5
						c0.9,0.2,2.3,0.2,3.8,0.2c7.9,0,12.2-4.4,12.2-12.2c0-6.8-3.8-11.1-11.6-11.1c-1.9,0-3.4,0.2-4.4,0.4V329.5z"/>
				</g>
				<g id="XMLID_2384_">
					<path id="XMLID_2385_" fill="#C6CDC7" d="M1221,303.6v28.8h-3.7v-28.8H1221z"/>
				</g>
				<g id="XMLID_2380_">
					<path id="XMLID_2381_" fill="#C6CDC7" d="M1252.1,317.7c0,9.9-6,15.1-13.4,15.1c-7.6,0-12.9-5.9-12.9-14.6
						c0-9.1,5.7-15.1,13.4-15.1C1247,303.2,1252.1,309.2,1252.1,317.7z M1229.8,318.2c0,6.1,3.3,11.6,9.2,11.6
						c5.9,0,9.2-5.4,9.2-11.9c0-5.7-3-11.7-9.2-11.7C1232.9,306.2,1229.8,311.9,1229.8,318.2z"/>
				</g>
			</g>
			<path id="XMLID_2743_" fill="#C1B6A0" d="M1103,121.8h-52.1v44.6c-9.4,2-16.5,10.4-16.5,20.4s7.1,18.4,16.5,20.4V220l19.2,26.7
				h33V121.8z"/>
		</g>
		<g id="XMLID_552_">
			<ellipse id="XMLID_536_" fill="#081517" cx="237.8" cy="545.4" rx="104.1" ry="22"/>
			<g id="XMLID_2630_">
				<g id="XMLID_2688_">
					<g id="XMLID_2689_">
						<path id="XMLID_2690_" fill="#C7B570" d="M292.5,543.6H190c-16.1,0-30-10.9-33.8-26.5l-7.2-29.5c-2.6-10.5-0.2-21.3,6.4-29.8
							c6.6-8.5,16.6-13.3,27.4-13.3h117c10.8,0,20.8,4.9,27.4,13.3c6.6,8.5,9,19.3,6.4,29.8l-7.2,29.5
							C322.5,532.6,308.6,543.6,292.5,543.6z"/>
					</g>
				</g>
				<g id="XMLID_2669_">
					<g id="XMLID_2685_">
						<g id="XMLID_2686_">
							<circle id="XMLID_2687_" fill="#0A3542" cx="190" cy="474.3" r="6.8"/>
						</g>
					</g>
					<g id="XMLID_2682_">
						<g id="XMLID_2683_">
							<circle id="XMLID_2684_" fill="#0A3542" cx="210.5" cy="474.3" r="6.8"/>
						</g>
					</g>
					<g id="XMLID_2679_">
						<g id="XMLID_2680_">
							<circle id="XMLID_2681_" fill="#0A3542" cx="231" cy="474.3" r="6.8"/>
						</g>
					</g>
					<g id="XMLID_2676_">
						<g id="XMLID_2677_">
							<circle id="XMLID_2678_" fill="#0A3542" cx="251.5" cy="474.3" r="6.8"/>
						</g>
					</g>
					<g id="XMLID_2673_">
						<g id="XMLID_2674_">
							<circle id="XMLID_2675_" fill="#0A3542" cx="272" cy="474.3" r="6.8"/>
						</g>
					</g>
					<g id="XMLID_2670_">
						<g id="XMLID_2671_">
							<circle id="XMLID_2672_" fill="#0A3542" cx="292.6" cy="474.3" r="6.8"/>
						</g>
					</g>
				</g>
				<g id="XMLID_2650_">
					<g id="XMLID_2666_">
						<g id="XMLID_2667_">
							<circle id="XMLID_2668_" fill="#0A3542" cx="190" cy="494" r="6.8"/>
						</g>
					</g>
					<g id="XMLID_2663_">
						<g id="XMLID_2664_">
							<circle id="XMLID_2665_" fill="#0A3542" cx="210.5" cy="494" r="6.8"/>
						</g>
					</g>
					<g id="XMLID_2660_">
						<g id="XMLID_2661_">
							<circle id="XMLID_2662_" fill="#0A3542" cx="231" cy="494" r="6.8"/>
						</g>
					</g>
					<g id="XMLID_2657_">
						<g id="XMLID_2658_">
							<circle id="XMLID_2659_" fill="#0A3542" cx="251.5" cy="494" r="6.8"/>
						</g>
					</g>
					<g id="XMLID_2654_">
						<g id="XMLID_2655_">
							<circle id="XMLID_2656_" fill="#0A3542" cx="272" cy="494" r="6.8"/>
						</g>
					</g>
					<g id="XMLID_2651_">
						<g id="XMLID_2652_">
							<circle id="XMLID_2653_" fill="#0A3542" cx="292.6" cy="494" r="6.8"/>
						</g>
					</g>
				</g>
				<g id="XMLID_2631_">
					<g id="XMLID_2647_">
						<g id="XMLID_2648_">
							<circle id="XMLID_2649_" fill="#0A3542" cx="190" cy="513.6" r="6.8"/>
						</g>
					</g>
					<g id="XMLID_2644_">
						<g id="XMLID_2645_">
							<circle id="XMLID_2646_" fill="#0A3542" cx="210.5" cy="513.6" r="6.8"/>
						</g>
					</g>
					<g id="XMLID_2641_">
						<g id="XMLID_2642_">
							<circle id="XMLID_2643_" fill="#0A3542" cx="231" cy="513.6" r="6.8"/>
						</g>
					</g>
					<g id="XMLID_2638_">
						<g id="XMLID_2639_">
							<circle id="XMLID_2640_" fill="#0A3542" cx="251.5" cy="513.6" r="6.8"/>
						</g>
					</g>
					<g id="XMLID_2635_">
						<g id="XMLID_2636_">
							<circle id="XMLID_2637_" fill="#0A3542" cx="272" cy="513.6" r="6.8"/>
						</g>
					</g>
					<g id="XMLID_2632_">
						<g id="XMLID_2633_">
							<circle id="XMLID_2634_" fill="#0A3542" cx="292.6" cy="513.6" r="6.8"/>
						</g>
					</g>
				</g>
			</g>
			<g id="XMLID_2445_">
				<g id="XMLID_2453_">
					<path id="XMLID_2454_" fill="#C6CDC7" d="M212.1,599.4l-9.4-28.8h4l4.5,14.2c1.2,3.9,2.3,7.4,3.1,10.8h0.1
						c0.8-3.3,2-7,3.3-10.7l4.9-14.2h4l-10.3,28.8H212.1z"/>
				</g>
				<g id="XMLID_2450_">
					<path id="XMLID_2451_" fill="#C6CDC7" d="M251.5,598.2c-1.7,0.6-4.9,1.6-8.8,1.6c-4.4,0-7.9-1.1-10.8-3.8
						c-2.5-2.4-4-6.2-4-10.7c0-8.6,5.9-14.8,15.6-14.8c3.3,0,5.9,0.7,7.2,1.3l-0.9,3c-1.5-0.7-3.5-1.2-6.4-1.2
						c-7,0-11.6,4.4-11.6,11.6c0,7.3,4.4,11.6,11.1,11.6c2.4,0,4.1-0.3,4.9-0.8v-8.6H242v-3h9.5V598.2z"/>
				</g>
				<g id="XMLID_2446_">
					<path id="XMLID_2447_" fill="#C6CDC7" d="M261.8,590.4l-3,9H255l9.8-28.8h4.5l9.8,28.8h-4l-3.1-9H261.8z M271.2,587.5l-2.8-8.3
						c-0.6-1.9-1.1-3.6-1.5-5.2h-0.1c-0.4,1.7-0.9,3.5-1.5,5.2l-2.8,8.3H271.2z"/>
				</g>
			</g>
			<path id="XMLID_2770_" fill="#ACB779" d="M222.1,444.4h-39.3c-10.8,0-20.8,4.9-27.4,13.3c-6.6,8.5-9,19.3-6.4,29.8l7.2,29.5
				c3.8,15.6,17.7,26.5,33.8,26.5h32.1V444.4z"/>
		</g>
		<g id="XMLID_553_">
			<ellipse id="XMLID_537_" fill="#081517" cx="520.1" cy="545.4" rx="81.8" ry="22"/>
			<g id="XMLID_2589_">
				<g id="XMLID_2625_">
					<g id="XMLID_2626_">
						<path id="XMLID_2627_" fill="#F26C63" d="M549.9,543.6h-57.7c-20.6,0-37.4-16.8-37.4-37.4v-44c0-9.8,8-17.7,17.7-17.7h97
							c9.8,0,17.7,8,17.7,17.7v44C587.3,526.8,570.5,543.6,549.9,543.6z"/>
					</g>
				</g>
				<g id="XMLID_2590_">
					<g id="XMLID_2620_">
						<g id="XMLID_2621_">
							<path id="XMLID_2622_" fill="#FEC77C" d="M549.9,524.7h-57.7c-10.3,0-18.6-8.3-18.6-18.6v-43h94.9v43
								C568.5,516.4,560.2,524.7,549.9,524.7z"/>
						</g>
					</g>
					<g id="XMLID_2617_">
						<g id="XMLID_2618_">
							<polygon id="XMLID_2619_" fill="#0A3542" points="555.7,506.4 489,506.4 489,501.2 550.6,501.2 550.6,486.7 489,486.7 
								489,481.6 555.7,481.6 							"/>
						</g>
					</g>
					<g id="XMLID_2604_">
						<g id="XMLID_2615_">
							<rect id="XMLID_2616_" x="495.5" y="475" fill="#0A3542" width="1.7" height="9.1"/>
						</g>
						<g id="XMLID_2613_">
							<rect id="XMLID_2614_" x="505.5" y="475" fill="#0A3542" width="1.7" height="9.1"/>
						</g>
						<g id="XMLID_2611_">
							<rect id="XMLID_2612_" x="515.4" y="475" fill="#0A3542" width="1.7" height="9.1"/>
						</g>
						<g id="XMLID_2609_">
							<rect id="XMLID_2610_" x="525.3" y="475" fill="#0A3542" width="1.7" height="9.1"/>
						</g>
						<g id="XMLID_2607_">
							<rect id="XMLID_2608_" x="535.2" y="475" fill="#0A3542" width="1.7" height="9.1"/>
						</g>
						<g id="XMLID_2605_">
							<rect id="XMLID_2606_" x="545.1" y="475" fill="#0A3542" width="1.7" height="9.1"/>
						</g>
					</g>
					<g id="XMLID_2591_">
						<g id="XMLID_2602_">
							<rect id="XMLID_2603_" x="495.5" y="494.7" fill="#0A3542" width="1.7" height="9.1"/>
						</g>
						<g id="XMLID_2600_">
							<rect id="XMLID_2601_" x="505.5" y="494.7" fill="#0A3542" width="1.7" height="9.1"/>
						</g>
						<g id="XMLID_2598_">
							<rect id="XMLID_2599_" x="515.4" y="494.7" fill="#0A3542" width="1.7" height="9.1"/>
						</g>
						<g id="XMLID_2596_">
							<rect id="XMLID_2597_" x="525.3" y="494.7" fill="#0A3542" width="1.7" height="9.1"/>
						</g>
						<g id="XMLID_2594_">
							<rect id="XMLID_2595_" x="535.2" y="494.7" fill="#0A3542" width="1.7" height="9.1"/>
						</g>
						<g id="XMLID_2592_">
							<rect id="XMLID_2593_" x="545.1" y="494.7" fill="#0A3542" width="1.7" height="9.1"/>
						</g>
					</g>
				</g>
			</g>
			<g id="XMLID_2422_">
				<g id="XMLID_2442_">
					<path id="XMLID_2443_" fill="#C6CDC7" d="M471.8,586.8c-0.2-4-0.5-8.8-0.4-12.4h-0.1c-1,3.4-2.2,7-3.6,10.9l-5.1,14h-2.8
						l-4.6-13.7c-1.4-4.1-2.5-7.8-3.3-11.2h-0.1c-0.1,3.6-0.3,8.4-0.6,12.7l-0.8,12.3h-3.5l2-28.8h4.7l4.9,13.9
						c1.2,3.5,2.2,6.7,2.9,9.7h0.1c0.7-2.9,1.7-6.1,3-9.7l5.1-13.9h4.7l1.8,28.8h-3.6L471.8,586.8z"/>
				</g>
				<g id="XMLID_2439_">
					<path id="XMLID_2440_" fill="#C6CDC7" d="M485.6,570.7v28.8h-3.7v-28.8H485.6z"/>
				</g>
				<g id="XMLID_2436_">
					<path id="XMLID_2437_" fill="#C6CDC7" d="M492.1,599.4v-28.8h4.1l9.2,14.5c2.1,3.4,3.8,6.4,5.2,9.3l0.1,0
						c-0.3-3.8-0.4-7.3-0.4-11.8v-12h3.5v28.8h-3.8l-9.1-14.6c-2-3.2-3.9-6.5-5.4-9.6l-0.1,0c0.2,3.6,0.3,7.1,0.3,11.9v12.3H492.1z"
						/>
				</g>
				<g id="XMLID_2433_">
					<path id="XMLID_2434_" fill="#C6CDC7" d="M523.9,570.7v28.8h-3.7v-28.8H523.9z"/>
				</g>
				<g id="XMLID_2429_">
					<path id="XMLID_2430_" fill="#C6CDC7" d="M539.4,571.1c2.3-0.3,4.9-0.6,7.9-0.6c5.3,0,9.1,1.2,11.6,3.6
						c2.6,2.3,4.1,5.7,4.1,10.3c0,4.7-1.5,8.5-4.1,11.2c-2.7,2.7-7.1,4.1-12.7,4.1c-2.6,0-4.9-0.1-6.7-0.3V571.1z M543.1,596.5
						c0.9,0.2,2.3,0.2,3.8,0.2c7.9,0,12.2-4.4,12.2-12.2c0-6.8-3.8-11.1-11.6-11.1c-1.9,0-3.4,0.2-4.4,0.4V596.5z"/>
				</g>
				<g id="XMLID_2426_">
					<path id="XMLID_2427_" fill="#C6CDC7" d="M574.1,599.4l-9.4-28.8h4l4.5,14.2c1.2,3.9,2.3,7.4,3.1,10.8h0.1
						c0.8-3.3,2-7,3.3-10.7l4.9-14.2h4l-10.3,28.8H574.1z"/>
				</g>
				<g id="XMLID_2423_">
					<path id="XMLID_2424_" fill="#C6CDC7" d="M595.3,570.7v28.8h-3.7v-28.8H595.3z"/>
				</g>
			</g>
			<path id="XMLID_2771_" fill="#DD898A" d="M509.4,444.4h-36.9c-9.8,0-17.7,8-17.7,17.7v44c0,20.6,16.8,37.4,37.4,37.4h17.2V444.4z
				"/>
		</g>
		<g id="XMLID_554_">
			<ellipse id="XMLID_538_" fill="#081517" cx="818.5" cy="536.4" rx="81.8" ry="22"/>
			<g id="XMLID_2456_">
				<g id="XMLID_2457_">
					<g id="XMLID_2458_">
						<path id="XMLID_2459_" fill="#DAD7C5" d="M880.3,535.4H756.6v-34.1l12.8-17.5v-31.4h98.3v31.4l12.5,17.5V535.4z"/>
					</g>
				</g>
				<g id="XMLID_2462_">
					<g id="XMLID_2463_">
						<rect id="XMLID_2464_" x="792.6" y="501.5" fill="#767769" width="51.6" height="8.6"/>
					</g>
				</g>
			</g>
			<g id="XMLID_2262_">
				<g id="XMLID_2283_">
					<path id="XMLID_2284_" fill="#C6CDC7" d="M743.7,570.7v17c0,6.4,2.9,9.2,6.7,9.2c4.3,0,7-2.8,7-9.2v-17h3.8v16.8
						c0,8.8-4.7,12.5-10.9,12.5c-5.9,0-10.3-3.4-10.3-12.3v-16.9H743.7z"/>
				</g>
				<g id="XMLID_2280_">
					<path id="XMLID_2281_" fill="#C6CDC7" d="M767,594.9c1.7,1,4.1,1.9,6.7,1.9c3.8,0,6-2,6-4.9c0-2.7-1.5-4.2-5.4-5.7
						c-4.7-1.7-7.6-4.1-7.6-8.1c0-4.5,3.7-7.8,9.3-7.8c2.9,0,5.1,0.7,6.4,1.4l-1,3c-0.9-0.5-2.9-1.4-5.5-1.4c-3.9,0-5.4,2.3-5.4,4.3
						c0,2.7,1.7,4,5.7,5.5c4.9,1.9,7.3,4.2,7.3,8.4c0,4.4-3.3,8.3-10.1,8.3c-2.8,0-5.8-0.8-7.3-1.8L767,594.9z"/>
				</g>
				<g id="XMLID_2275_">
					<path id="XMLID_2276_" fill="#C6CDC7" d="M788.6,571.1c1.6-0.3,4.2-0.6,6.8-0.6c3.7,0,6.1,0.6,7.9,2.1c1.5,1.1,2.4,2.8,2.4,5.1
						c0,2.8-1.8,5.2-4.9,6.3v0.1c2.7,0.7,5.9,2.9,5.9,7.2c0,2.5-1,4.4-2.4,5.8c-2,1.8-5.2,2.7-9.9,2.7c-2.6,0-4.5-0.2-5.8-0.3V571.1
						z M792.3,582.8h3.4c3.9,0,6.2-2,6.2-4.8c0-3.4-2.6-4.7-6.3-4.7c-1.7,0-2.7,0.1-3.3,0.3V582.8z M792.3,596.6
						c0.7,0.1,1.8,0.2,3.1,0.2c3.8,0,7.4-1.4,7.4-5.6c0-3.9-3.4-5.5-7.4-5.5h-3.1V596.6z"/>
				</g>
				<g id="XMLID_2272_">
					<path id="XMLID_2273_" fill="#C6CDC7" d="M845,586.8c-0.2-4-0.5-8.8-0.4-12.4h-0.1c-1,3.4-2.2,7-3.6,10.9l-5.1,14h-2.8
						l-4.6-13.7c-1.4-4.1-2.5-7.8-3.3-11.2h-0.1c-0.1,3.6-0.3,8.4-0.6,12.7l-0.8,12.3H820l2-28.8h4.7l4.9,13.9
						c1.2,3.5,2.2,6.7,2.9,9.7h0.1c0.7-2.9,1.7-6.1,3-9.7l5.1-13.9h4.7l1.8,28.8h-3.6L845,586.8z"/>
				</g>
				<g id="XMLID_2269_">
					<path id="XMLID_2270_" fill="#C6CDC7" d="M858.7,570.7v28.8H855v-28.8H858.7z"/>
				</g>
				<g id="XMLID_2266_">
					<path id="XMLID_2267_" fill="#C6CDC7" d="M865.2,599.4v-28.8h4.1l9.2,14.5c2.1,3.4,3.8,6.4,5.2,9.3l0.1,0
						c-0.3-3.8-0.4-7.3-0.4-11.8v-12h3.5v28.8H883l-9.1-14.6c-2-3.2-3.9-6.5-5.4-9.6l-0.1,0c0.2,3.6,0.3,7.1,0.3,11.9v12.3H865.2z"
						/>
				</g>
				<g id="XMLID_2263_">
					<path id="XMLID_2264_" fill="#C6CDC7" d="M897,570.7v28.8h-3.7v-28.8H897z"/>
				</g>
			</g>
			<polygon id="XMLID_2772_" fill="#C1B6A0" points="803,452.5 769.5,452.5 769.5,483.9 756.6,501.4 756.6,535.4 803,535.4 			"/>
		</g>
		<g id="XMLID_548_">
			<ellipse id="XMLID_539_" fill="#081517" cx="1111.6" cy="545.4" rx="104.1" ry="22"/>
			<g id="XMLID_2562_">
				<g id="XMLID_2568_">
					<g id="XMLID_2569_">
						<path id="XMLID_2570_" fill="#8AACB9" d="M1167.1,545.4H1057l-21.1-25.9v-77.1h151.3v77L1167.1,545.4z"/>
					</g>
				</g>
				<g id="XMLID_2563_">
					<g id="XMLID_2564_">
						<path id="XMLID_2565_" fill="#DAD7C5" d="M1171,505.3h-118.8v-30H1171V505.3z"/>
					</g>
				</g>
			</g>
			<g id="XMLID_2340_">
				<g id="XMLID_2376_">
					<path id="XMLID_2377_" fill="#C6CDC7" d="M986.8,573.8H978v-3.2h21.3v3.2h-8.8v25.6h-3.8V573.8z"/>
				</g>
				<g id="XMLID_2373_">
					<path id="XMLID_2374_" fill="#C6CDC7" d="M1006.2,570.7v12h13.9v-12h3.8v28.8h-3.8v-13.5h-13.9v13.5h-3.7v-28.8H1006.2z"/>
				</g>
				<g id="XMLID_2370_">
					<path id="XMLID_2371_" fill="#C6CDC7" d="M1034,570.7v17c0,6.4,2.9,9.2,6.7,9.2c4.3,0,7-2.8,7-9.2v-17h3.8v16.8
						c0,8.8-4.7,12.5-10.9,12.5c-5.9,0-10.3-3.4-10.3-12.3v-16.9H1034z"/>
				</g>
				<g id="XMLID_2367_">
					<path id="XMLID_2368_" fill="#C6CDC7" d="M1057.9,599.4v-28.8h4.1l9.2,14.5c2.1,3.4,3.8,6.4,5.2,9.3l0.1,0
						c-0.3-3.8-0.4-7.3-0.4-11.8v-12h3.5v28.8h-3.8l-9.1-14.6c-2-3.2-3.9-6.5-5.4-9.6l-0.1,0c0.2,3.6,0.3,7.1,0.3,11.9v12.3H1057.9z
						"/>
				</g>
				<g id="XMLID_2363_">
					<path id="XMLID_2364_" fill="#C6CDC7" d="M1086,571.1c2.3-0.3,4.9-0.6,7.9-0.6c5.3,0,9.1,1.2,11.6,3.6
						c2.6,2.3,4.1,5.7,4.1,10.3c0,4.7-1.5,8.5-4.1,11.2c-2.7,2.7-7.1,4.1-12.7,4.1c-2.6,0-4.9-0.1-6.7-0.3V571.1z M1089.7,596.5
						c0.9,0.2,2.3,0.2,3.8,0.2c7.9,0,12.2-4.4,12.2-12.2c0-6.8-3.8-11.1-11.6-11.1c-1.9,0-3.4,0.2-4.4,0.4V596.5z"/>
				</g>
				<g id="XMLID_2360_">
					<path id="XMLID_2361_" fill="#C6CDC7" d="M1129.3,585.9h-11.2v10.4h12.5v3.1h-16.2v-28.8h15.5v3.1h-11.8v9.1h11.2V585.9z"/>
				</g>
				<g id="XMLID_2356_">
					<path id="XMLID_2357_" fill="#C6CDC7" d="M1135.4,571.1c1.9-0.4,4.6-0.6,7.1-0.6c4,0,6.5,0.7,8.3,2.3c1.4,1.3,2.3,3.2,2.3,5.5
						c0,3.8-2.4,6.3-5.4,7.3v0.1c2.2,0.8,3.5,2.8,4.2,5.8c0.9,4,1.6,6.8,2.2,7.9h-3.8c-0.5-0.8-1.1-3.3-1.9-6.9
						c-0.9-4-2.4-5.5-5.8-5.6h-3.5v12.5h-3.7V571.1z M1139.1,584.2h3.8c4,0,6.5-2.2,6.5-5.5c0-3.7-2.7-5.3-6.6-5.4
						c-1.8,0-3.1,0.2-3.7,0.3V584.2z"/>
				</g>
				<g id="XMLID_2351_">
					<path id="XMLID_2352_" fill="#C6CDC7" d="M1158.3,571.1c1.6-0.3,4.2-0.6,6.8-0.6c3.7,0,6.1,0.6,7.9,2.1
						c1.5,1.1,2.4,2.8,2.4,5.1c0,2.8-1.8,5.2-4.9,6.3v0.1c2.7,0.7,5.9,2.9,5.9,7.2c0,2.5-1,4.4-2.4,5.8c-2,1.8-5.2,2.7-9.9,2.7
						c-2.6,0-4.5-0.2-5.8-0.3V571.1z M1162,582.8h3.4c3.9,0,6.2-2,6.2-4.8c0-3.4-2.6-4.7-6.3-4.7c-1.7,0-2.7,0.1-3.3,0.3V582.8z
						 M1162,596.6c0.7,0.1,1.8,0.2,3.1,0.2c3.8,0,7.4-1.4,7.4-5.6c0-3.9-3.4-5.5-7.4-5.5h-3.1V596.6z"/>
				</g>
				<g id="XMLID_2347_">
					<path id="XMLID_2348_" fill="#C6CDC7" d="M1206,584.8c0,9.9-6,15.1-13.4,15.1c-7.6,0-12.9-5.9-12.9-14.6
						c0-9.1,5.7-15.1,13.4-15.1C1200.9,570.2,1206,576.2,1206,584.8z M1183.7,585.2c0,6.1,3.3,11.6,9.2,11.6c5.9,0,9.2-5.4,9.2-11.9
						c0-5.7-3-11.7-9.2-11.7C1186.8,573.2,1183.7,578.9,1183.7,585.2z"/>
				</g>
				<g id="XMLID_2344_">
					<path id="XMLID_2345_" fill="#C6CDC7" d="M1210.8,570.7h3.7v25.6h12.3v3.1h-16V570.7z"/>
				</g>
				<g id="XMLID_2341_">
					<path id="XMLID_2342_" fill="#C6CDC7" d="M1232.6,573.8h-8.7v-3.2h21.3v3.2h-8.8v25.6h-3.8V573.8z"/>
				</g>
			</g>
			<polygon id="XMLID_2765_" fill="#9AC0CE" points="1097.7,442.5 1035.9,442.5 1035.9,519.6 1057,545.4 1097.7,545.4 			"/>
		</g>
		<g id="XMLID_551_">
			<ellipse id="XMLID_535_" fill="#081517" cx="385.8" cy="807" rx="104.1" ry="22"/>
			<g id="XMLID_2199_">
				<g id="XMLID_2247_">
					<g id="XMLID_2248_">
						<path id="XMLID_2249_" fill="#DAD7C5" d="M442.9,807H332.8l-21.1-25.9v-77.1h151.3v77L442.9,807z"/>
					</g>
				</g>
				<g id="XMLID_2226_">
					<g id="XMLID_2245_">
						<rect id="XMLID_2246_" x="337.1" y="719.5" fill="#0A3542" width="3.4" height="6.8"/>
					</g>
					<g id="XMLID_2243_">
						<rect id="XMLID_2244_" x="347.9" y="719.5" fill="#0A3542" width="3.4" height="6.8"/>
					</g>
					<g id="XMLID_2241_">
						<rect id="XMLID_2242_" x="358.7" y="719.5" fill="#0A3542" width="3.4" height="6.8"/>
					</g>
					<g id="XMLID_2239_">
						<rect id="XMLID_2240_" x="369.5" y="719.5" fill="#0A3542" width="3.4" height="6.8"/>
					</g>
					<g id="XMLID_2237_">
						<rect id="XMLID_2238_" x="380.3" y="719.5" fill="#0A3542" width="3.4" height="6.8"/>
					</g>
					<g id="XMLID_2235_">
						<rect id="XMLID_2236_" x="391.1" y="719.5" fill="#0A3542" width="3.4" height="6.8"/>
					</g>
					<g id="XMLID_2233_">
						<rect id="XMLID_2234_" x="401.9" y="719.5" fill="#0A3542" width="3.4" height="6.8"/>
					</g>
					<g id="XMLID_2231_">
						<rect id="XMLID_2232_" x="412.7" y="719.5" fill="#0A3542" width="3.4" height="6.8"/>
					</g>
					<g id="XMLID_2229_">
						<rect id="XMLID_2230_" x="423.5" y="719.5" fill="#0A3542" width="3.4" height="6.8"/>
					</g>
					<g id="XMLID_2227_">
						<rect id="XMLID_2228_" x="434.3" y="719.5" fill="#0A3542" width="3.4" height="6.8"/>
					</g>
				</g>
				<g id="XMLID_2221_">
					<g id="XMLID_2222_">
						<path id="XMLID_2223_" fill="#C7B570" d="M463.1,781.7H311.7v-49.8h151.3V781.7z"/>
					</g>
				</g>
				<g id="XMLID_2200_">
					<g id="XMLID_2219_">
						<circle id="XMLID_2220_" fill="#0A3542" cx="340.8" cy="789.6" r="2"/>
					</g>
					<g id="XMLID_2217_">
						<circle id="XMLID_2218_" fill="#0A3542" cx="351.2" cy="789.6" r="2"/>
					</g>
					<g id="XMLID_2215_">
						<circle id="XMLID_2216_" fill="#0A3542" cx="361.5" cy="789.6" r="2"/>
					</g>
					<g id="XMLID_2213_">
						<circle id="XMLID_2214_" fill="#0A3542" cx="371.9" cy="789.6" r="2"/>
					</g>
					<g id="XMLID_2211_">
						<circle id="XMLID_2212_" fill="#0A3542" cx="382.2" cy="789.6" r="2"/>
					</g>
					<g id="XMLID_2209_">
						<circle id="XMLID_2210_" fill="#0A3542" cx="392.6" cy="789.6" r="2"/>
					</g>
					<g id="XMLID_2207_">
						<circle id="XMLID_2208_" fill="#0A3542" cx="402.9" cy="789.6" r="2"/>
					</g>
					<g id="XMLID_2205_">
						<circle id="XMLID_2206_" fill="#0A3542" cx="413.3" cy="789.6" r="2"/>
					</g>
					<g id="XMLID_2203_">
						<circle id="XMLID_2204_" fill="#0A3542" cx="423.6" cy="789.6" r="2"/>
					</g>
					<g id="XMLID_2201_">
						<circle id="XMLID_2202_" fill="#0A3542" cx="434" cy="789.6" r="2"/>
					</g>
				</g>
			</g>
			<g id="XMLID_2133_">
				<g id="XMLID_2182_">
					<path id="XMLID_2183_" fill="#C6CDC7" d="M246.7,866c-0.2-4-0.5-8.8-0.4-12.4h-0.1c-1,3.4-2.2,7-3.6,10.9l-5.1,14h-2.8
						l-4.7-13.7c-1.4-4.1-2.5-7.8-3.3-11.2h-0.1c-0.1,3.6-0.3,8.4-0.6,12.7l-0.8,12.3h-3.5l2-28.8h4.7l4.9,13.9
						c1.2,3.5,2.2,6.7,2.9,9.7h0.1c0.7-2.9,1.8-6.1,3-9.7l5.1-13.9h4.7l1.8,28.8h-3.6L246.7,866z"/>
				</g>
				<g id="XMLID_2179_">
					<path id="XMLID_2180_" fill="#C6CDC7" d="M260.5,849.8v28.8h-3.7v-28.8H260.5z"/>
				</g>
				<g id="XMLID_2176_">
					<path id="XMLID_2177_" fill="#C6CDC7" d="M266.9,878.6v-28.8h4.1l9.2,14.5c2.1,3.4,3.8,6.4,5.2,9.3l0.1,0
						c-0.3-3.8-0.4-7.3-0.4-11.8v-12h3.5v28.8h-3.8l-9.1-14.6c-2-3.2-3.9-6.5-5.4-9.6l-0.1,0c0.2,3.6,0.3,7.1,0.3,11.9v12.3H266.9z"
						/>
				</g>
				<g id="XMLID_2173_">
					<path id="XMLID_2174_" fill="#C6CDC7" d="M298.7,849.8v28.8H295v-28.8H298.7z"/>
				</g>
				<g id="XMLID_2169_">
					<path id="XMLID_2170_" fill="#C6CDC7" d="M314.2,850.2c2.3-0.3,4.9-0.6,7.9-0.6c5.3,0,9.1,1.2,11.6,3.6
						c2.6,2.3,4.1,5.7,4.1,10.3c0,4.7-1.4,8.5-4.1,11.2c-2.7,2.7-7.1,4.1-12.7,4.1c-2.6,0-4.9-0.1-6.7-0.3V850.2z M317.9,875.7
						c0.9,0.2,2.3,0.2,3.8,0.2c7.9,0,12.2-4.4,12.2-12.2c0-6.8-3.8-11.1-11.6-11.1c-1.9,0-3.4,0.2-4.4,0.4V875.7z"/>
				</g>
				<g id="XMLID_2166_">
					<path id="XMLID_2167_" fill="#C6CDC7" d="M346.3,849.8v28.8h-3.7v-28.8H346.3z"/>
				</g>
				<g id="XMLID_2163_">
					<path id="XMLID_2164_" fill="#C6CDC7" d="M352.3,874.1c1.7,1,4.1,1.9,6.7,1.9c3.8,0,6-2,6-4.9c0-2.7-1.5-4.2-5.4-5.7
						c-4.7-1.7-7.6-4.1-7.6-8.1c0-4.5,3.7-7.8,9.3-7.8c2.9,0,5.1,0.7,6.4,1.4l-1,3c-0.9-0.5-2.9-1.4-5.5-1.4c-3.9,0-5.4,2.3-5.4,4.3
						c0,2.7,1.8,4,5.7,5.5c4.9,1.9,7.3,4.2,7.3,8.4c0,4.4-3.3,8.3-10.1,8.3c-2.8,0-5.8-0.8-7.3-1.8L352.3,874.1z"/>
				</g>
				<g id="XMLID_2159_">
					<path id="XMLID_2160_" fill="#C6CDC7" d="M373.9,850.2c1.8-0.3,4.1-0.6,7.1-0.6c3.7,0,6.4,0.9,8.1,2.4c1.6,1.4,2.5,3.5,2.5,6
						c0,2.6-0.8,4.6-2.2,6.1c-2,2.1-5.2,3.2-8.8,3.2c-1.1,0-2.1,0-3-0.3v11.5h-3.7V850.2z M377.6,864.1c0.8,0.2,1.8,0.3,3.1,0.3
						c4.5,0,7.2-2.2,7.2-6.1c0-3.8-2.7-5.6-6.8-5.6c-1.6,0-2.9,0.1-3.5,0.3V864.1z"/>
				</g>
				<g id="XMLID_2156_">
					<path id="XMLID_2157_" fill="#C6CDC7" d="M396.5,849.8h3.7v25.6h12.3v3.1h-16V849.8z"/>
				</g>
				<g id="XMLID_2152_">
					<path id="XMLID_2153_" fill="#C6CDC7" d="M421.3,869.6l-3,9h-3.8l9.8-28.8h4.5l9.8,28.8h-4l-3.1-9H421.3z M430.8,866.7
						l-2.8-8.3c-0.6-1.9-1.1-3.6-1.5-5.2h-0.1c-0.4,1.7-0.9,3.5-1.5,5.2l-2.8,8.3H430.8z"/>
				</g>
				<g id="XMLID_2149_">
					<path id="XMLID_2150_" fill="#C6CDC7" d="M445.8,878.6v-12.2l-9.1-16.6h4.2l4.1,7.9c1.1,2.2,2,3.9,2.9,5.9h0.1
						c0.8-1.9,1.8-3.8,2.9-5.9l4.1-7.9h4.2l-9.6,16.5v12.2H445.8z"/>
				</g>
				<g id="XMLID_2145_">
					<path id="XMLID_2146_" fill="#C6CDC7" d="M462.2,850.2c1.8-0.3,4.1-0.6,7.1-0.6c3.7,0,6.4,0.9,8.1,2.4c1.6,1.4,2.5,3.5,2.5,6
						c0,2.6-0.8,4.6-2.2,6.1c-2,2.1-5.2,3.2-8.8,3.2c-1.1,0-2.1,0-3-0.3v11.5h-3.7V850.2z M465.9,864.1c0.8,0.2,1.8,0.3,3.1,0.3
						c4.5,0,7.2-2.2,7.2-6.1c0-3.8-2.7-5.6-6.8-5.6c-1.6,0-2.9,0.1-3.5,0.3V864.1z"/>
				</g>
				<g id="XMLID_2141_">
					<path id="XMLID_2142_" fill="#C6CDC7" d="M509.4,863.9c0,9.9-6,15.1-13.4,15.1c-7.6,0-12.9-5.9-12.9-14.6
						c0-9.1,5.7-15.1,13.4-15.1C504.4,849.4,509.4,855.4,509.4,863.9z M487.1,864.4c0,6.1,3.3,11.6,9.2,11.6c5.9,0,9.2-5.4,9.2-11.9
						c0-5.7-3-11.7-9.2-11.7C490.2,852.4,487.1,858.1,487.1,864.4z"/>
				</g>
				<g id="XMLID_2137_">
					<path id="XMLID_2138_" fill="#C6CDC7" d="M514.3,850.2c1.9-0.4,4.6-0.6,7.1-0.6c4,0,6.5,0.7,8.3,2.3c1.5,1.3,2.3,3.2,2.3,5.5
						c0,3.8-2.4,6.3-5.4,7.3v0.1c2.2,0.8,3.5,2.8,4.2,5.8c0.9,4,1.6,6.8,2.2,7.9h-3.8c-0.5-0.8-1.1-3.3-1.9-6.9
						c-0.9-4-2.4-5.5-5.8-5.6H518v12.5h-3.7V850.2z M518,863.3h3.8c4,0,6.5-2.2,6.5-5.5c0-3.7-2.7-5.3-6.6-5.4
						c-1.8,0-3.1,0.2-3.7,0.3V863.3z"/>
				</g>
				<g id="XMLID_2134_">
					<path id="XMLID_2135_" fill="#C6CDC7" d="M543,853h-8.7v-3.2h21.3v3.2h-8.8v25.6H543V853z"/>
				</g>
			</g>
			<polygon id="XMLID_2774_" fill="#C1B6A0" points="368.8,704.1 311.7,704.1 311.7,781.1 332.8,807 368.8,807 			"/>
		</g>
		<g id="XMLID_550_">
			<ellipse id="XMLID_2811_" fill="#081517" cx="736.8" cy="790.9" rx="148.7" ry="22"/>
			<g id="XMLID_2082_">
				<g id="XMLID_2128_">
					<g id="XMLID_2129_">
						<path id="XMLID_2130_" fill="#8AACB9" d="M829.5,790.9H623.9v-70.7h224.9v45.5L829.5,790.9z"/>
					</g>
				</g>
				<g id="XMLID_2125_">
					<g id="XMLID_2126_">
						<polygon id="XMLID_2127_" fill="#0A3542" points="816.1,775.1 807.5,775.1 807.5,759.2 651.3,759.2 651.3,775.1 642.8,775.1 
							642.8,750.6 816.1,750.6 						"/>
					</g>
				</g>
				<g id="XMLID_2104_">
					<g id="XMLID_2123_">
						<circle id="XMLID_2124_" fill="#0A3542" cx="662.5" cy="768.9" r="3"/>
					</g>
					<g id="XMLID_2121_">
						<circle id="XMLID_2122_" fill="#0A3542" cx="677.4" cy="768.9" r="3"/>
					</g>
					<g id="XMLID_2119_">
						<circle id="XMLID_2120_" fill="#0A3542" cx="692.2" cy="768.9" r="3"/>
					</g>
					<g id="XMLID_2117_">
						<circle id="XMLID_2118_" fill="#0A3542" cx="707.1" cy="768.9" r="3"/>
					</g>
					<g id="XMLID_2115_">
						<circle id="XMLID_2116_" fill="#0A3542" cx="722" cy="768.9" r="3"/>
					</g>
					<g id="XMLID_2113_">
						<circle id="XMLID_2114_" fill="#0A3542" cx="736.8" cy="768.9" r="3"/>
					</g>
					<g id="XMLID_2111_">
						<circle id="XMLID_2112_" fill="#0A3542" cx="751.7" cy="768.9" r="3"/>
					</g>
					<g id="XMLID_2109_">
						<circle id="XMLID_2110_" fill="#0A3542" cx="766.6" cy="768.9" r="3"/>
					</g>
					<g id="XMLID_2107_">
						<circle id="XMLID_2108_" fill="#0A3542" cx="781.4" cy="768.9" r="3"/>
					</g>
					<g id="XMLID_2105_">
						<circle id="XMLID_2106_" fill="#0A3542" cx="796.3" cy="768.9" r="3"/>
					</g>
				</g>
				<g id="XMLID_2083_">
					<g id="XMLID_2102_">
						<rect id="XMLID_2103_" x="654.7" y="736" fill="#0A3542" width="3.4" height="18.9"/>
					</g>
					<g id="XMLID_2100_">
						<rect id="XMLID_2101_" x="669.5" y="736" fill="#0A3542" width="3.4" height="18.9"/>
					</g>
					<g id="XMLID_2098_">
						<rect id="XMLID_2099_" x="684.2" y="736" fill="#0A3542" width="3.4" height="18.9"/>
					</g>
					<g id="XMLID_2096_">
						<rect id="XMLID_2097_" x="699" y="736" fill="#0A3542" width="3.4" height="18.9"/>
					</g>
					<g id="XMLID_2094_">
						<rect id="XMLID_2095_" x="713.7" y="736" fill="#0A3542" width="3.4" height="18.9"/>
					</g>
					<g id="XMLID_2092_">
						<rect id="XMLID_2093_" x="728.5" y="736" fill="#0A3542" width="3.4" height="18.9"/>
					</g>
					<g id="XMLID_2090_">
						<rect id="XMLID_2091_" x="743.2" y="736" fill="#0A3542" width="3.4" height="18.9"/>
					</g>
					<g id="XMLID_2088_">
						<rect id="XMLID_2089_" x="758" y="736" fill="#0A3542" width="3.4" height="18.9"/>
					</g>
					<g id="XMLID_2086_">
						<rect id="XMLID_2087_" x="772.8" y="736" fill="#0A3542" width="3.4" height="18.9"/>
					</g>
					<g id="XMLID_2084_">
						<rect id="XMLID_2085_" x="787.5" y="736" fill="#0A3542" width="3.4" height="18.9"/>
					</g>
				</g>
			</g>
			<g id="XMLID_2042_">
				<g id="XMLID_2078_">
					<path id="XMLID_2079_" fill="#C6CDC7" d="M617.3,850.2c2.3-0.3,4.9-0.6,7.9-0.6c5.3,0,9.1,1.2,11.6,3.6
						c2.6,2.3,4.1,5.7,4.1,10.3c0,4.7-1.5,8.5-4.1,11.2c-2.7,2.7-7.1,4.1-12.7,4.1c-2.6,0-4.9-0.1-6.7-0.3V850.2z M621,875.7
						c0.9,0.2,2.3,0.2,3.8,0.2c7.9,0,12.2-4.4,12.2-12.2c0-6.8-3.8-11.1-11.6-11.1c-1.9,0-3.4,0.2-4.4,0.4V875.7z"/>
				</g>
				<g id="XMLID_2075_">
					<path id="XMLID_2076_" fill="#C6CDC7" d="M649.4,849.8v28.8h-3.7v-28.8H649.4z"/>
				</g>
				<g id="XMLID_2072_">
					<path id="XMLID_2073_" fill="#C6CDC7" d="M655.4,874.1c1.7,1,4.1,1.9,6.7,1.9c3.8,0,6-2,6-4.9c0-2.7-1.5-4.2-5.4-5.7
						c-4.7-1.7-7.6-4.1-7.6-8.1c0-4.5,3.7-7.8,9.3-7.8c2.9,0,5.1,0.7,6.4,1.4l-1,3c-0.9-0.5-2.9-1.4-5.5-1.4c-3.9,0-5.4,2.3-5.4,4.3
						c0,2.7,1.7,4,5.7,5.5c4.9,1.9,7.3,4.2,7.3,8.4c0,4.4-3.3,8.3-10.1,8.3c-2.8,0-5.8-0.8-7.3-1.8L655.4,874.1z"/>
				</g>
				<g id="XMLID_2068_">
					<path id="XMLID_2069_" fill="#C6CDC7" d="M676.9,850.2c1.8-0.3,4.1-0.6,7.1-0.6c3.7,0,6.4,0.9,8.1,2.4c1.6,1.4,2.5,3.5,2.5,6
						c0,2.6-0.8,4.6-2.2,6.1c-2,2.1-5.2,3.2-8.8,3.2c-1.1,0-2.1,0-3-0.3v11.5h-3.7V850.2z M680.6,864.1c0.8,0.2,1.8,0.3,3.1,0.3
						c4.5,0,7.2-2.2,7.2-6.1c0-3.8-2.7-5.6-6.8-5.6c-1.6,0-2.9,0.1-3.5,0.3V864.1z"/>
				</g>
				<g id="XMLID_2065_">
					<path id="XMLID_2066_" fill="#C6CDC7" d="M699.6,849.8h3.7v25.6h12.3v3.1h-16V849.8z"/>
				</g>
				<g id="XMLID_2061_">
					<path id="XMLID_2062_" fill="#C6CDC7" d="M724.4,869.6l-3,9h-3.8l9.8-28.8h4.5l9.8,28.8h-4l-3.1-9H724.4z M733.8,866.7
						l-2.8-8.3c-0.6-1.9-1.1-3.6-1.5-5.2h-0.1c-0.4,1.7-0.9,3.5-1.4,5.2l-2.8,8.3H733.8z"/>
				</g>
				<g id="XMLID_2058_">
					<path id="XMLID_2059_" fill="#C6CDC7" d="M748.9,878.6v-12.2l-9.1-16.6h4.2l4.1,7.9c1.1,2.2,2,3.9,2.9,5.9h0.1
						c0.8-1.9,1.8-3.8,2.9-5.9l4.1-7.9h4.2l-9.6,16.5v12.2H748.9z"/>
				</g>
				<g id="XMLID_2054_">
					<path id="XMLID_2055_" fill="#C6CDC7" d="M765.3,850.2c1.8-0.3,4.1-0.6,7.1-0.6c3.7,0,6.4,0.9,8.1,2.4c1.6,1.4,2.5,3.5,2.5,6
						c0,2.6-0.8,4.6-2.2,6.1c-2,2.1-5.2,3.2-8.8,3.2c-1.1,0-2.1,0-3-0.3v11.5h-3.7V850.2z M769,864.1c0.8,0.2,1.8,0.3,3.1,0.3
						c4.5,0,7.2-2.2,7.2-6.1c0-3.8-2.7-5.6-6.8-5.6c-1.6,0-2.9,0.1-3.5,0.3V864.1z"/>
				</g>
				<g id="XMLID_2050_">
					<path id="XMLID_2051_" fill="#C6CDC7" d="M812.5,863.9c0,9.9-6,15.1-13.4,15.1c-7.6,0-12.9-5.9-12.9-14.6
						c0-9.1,5.7-15.1,13.4-15.1C807.4,849.4,812.5,855.4,812.5,863.9z M790.2,864.4c0,6.1,3.3,11.6,9.2,11.6c5.9,0,9.2-5.4,9.2-11.9
						c0-5.7-3-11.7-9.2-11.7C793.3,852.4,790.2,858.1,790.2,864.4z"/>
				</g>
				<g id="XMLID_2046_">
					<path id="XMLID_2047_" fill="#C6CDC7" d="M817.3,850.2c1.9-0.4,4.6-0.6,7.1-0.6c4,0,6.5,0.7,8.3,2.3c1.5,1.3,2.3,3.2,2.3,5.5
						c0,3.8-2.4,6.3-5.4,7.3v0.1c2.2,0.8,3.5,2.8,4.2,5.8c0.9,4,1.6,6.8,2.2,7.9h-3.8c-0.5-0.8-1.1-3.3-1.9-6.9
						c-0.9-4-2.4-5.5-5.8-5.6H821v12.5h-3.7V850.2z M821,863.3h3.8c4,0,6.5-2.2,6.5-5.5c0-3.7-2.7-5.3-6.6-5.4
						c-1.8,0-3.1,0.2-3.7,0.3V863.3z"/>
				</g>
				<g id="XMLID_2043_">
					<path id="XMLID_2044_" fill="#C6CDC7" d="M846.1,853h-8.7v-3.2h21.3v3.2h-8.8v25.6h-3.8V853z"/>
				</g>
			</g>
			<rect id="XMLID_2775_" x="623.9" y="720.2" fill="#9AC0CE" width="83.7" height="70.7"/>
		</g>
		<g id="XMLID_549_">
			<ellipse id="XMLID_534_" fill="#081517" cx="1076.4" cy="792.7" rx="122.3" ry="22"/>
			<g id="XMLID_2252_">
				<g id="XMLID_2256_">
					<g id="XMLID_2257_">
						<path id="XMLID_2258_" fill="#F26C63" d="M1139.8,792.7H1019l-11-16.2c-4.8-7.1-12.9-11.3-21.5-11.3h-6v-46.9h197.8v46.9h-6
							c-8.6,0-16.6,4.2-21.4,11.3L1139.8,792.7z"/>
					</g>
				</g>
				<g id="XMLID_2253_">
					<g id="XMLID_2254_">
						<rect id="XMLID_2255_" x="1021.3" y="749.6" fill="#DAD7C5" width="116.3" height="12"/>
					</g>
				</g>
			</g>
			<g id="XMLID_2185_">
				<g id="XMLID_2196_">
					<path id="XMLID_2197_" fill="#C6CDC7" d="M1036,849.8v12h13.9v-12h3.8v28.8h-3.8v-13.5H1036v13.5h-3.7v-28.8H1036z"/>
				</g>
				<g id="XMLID_2192_">
					<path id="XMLID_2193_" fill="#C6CDC7" d="M1060.1,850.2c2.3-0.3,4.9-0.6,7.9-0.6c5.3,0,9.1,1.2,11.6,3.6
						c2.6,2.3,4.1,5.7,4.1,10.3c0,4.7-1.5,8.5-4.1,11.2c-2.7,2.7-7.1,4.1-12.7,4.1c-2.6,0-4.9-0.1-6.7-0.3V850.2z M1063.8,875.7
						c0.9,0.2,2.3,0.2,3.8,0.2c7.9,0,12.2-4.4,12.2-12.2c0-6.8-3.8-11.1-11.6-11.1c-1.9,0-3.4,0.2-4.4,0.4V875.7z"/>
				</g>
				<g id="XMLID_2189_">
					<path id="XMLID_2190_" fill="#C6CDC7" d="M1112.8,866c-0.2-4-0.5-8.8-0.4-12.4h-0.1c-1,3.4-2.2,7-3.6,10.9l-5.1,14h-2.8
						l-4.7-13.7c-1.4-4.1-2.5-7.8-3.3-11.2h-0.1c-0.1,3.6-0.3,8.4-0.6,12.7l-0.8,12.3h-3.5l2-28.8h4.7l4.9,13.9
						c1.2,3.5,2.2,6.7,2.9,9.7h0.1c0.7-2.9,1.8-6.1,3-9.7l5.1-13.9h4.7l1.8,28.8h-3.6L1112.8,866z"/>
				</g>
				<g id="XMLID_2186_">
					<path id="XMLID_2187_" fill="#C6CDC7" d="M1126.5,849.8v28.8h-3.7v-28.8H1126.5z"/>
				</g>
			</g>
			<path id="XMLID_2776_" fill="#DD898A" d="M1060.1,718.4h-79.6v46.9h6c8.6,0,16.6,4.2,21.5,11.3l11,16.2h41.1V718.4z"/>
		</g>
	</g>
</g>
</svg>
